<?xml version="1.0" encoding="utf-8"?>
<!-- Generator: Adobe Illustrator 22.1.0, SVG Export Plug-In . SVG Version: 6.00 Build 0)  -->
<svg version="1.1" id="Nuffic_VVTO" xmlns="http://www.w3.org/2000/svg" xmlns:xlink="http://www.w3.org/1999/xlink" x="0px"
	 y="0px" viewBox="0 0 524.4 144.6" style="enable-background:new 0 0 524.4 144.6;" xml:space="preserve">
<style type="text/css">
	.st0{fill:none;}
	.st1{fill:#8F909E;}
	.st2{fill:#1E2030;}
	.st3{fill:#64A67E;}
	.st4{fill:#FFFFFF;}
</style>
<rect class="st0" width="524.4" height="144.6"/>
<g>
	<g>
		<path class="st1" d="M84.5,93.5l-23.9-38c-1.2-2-3.5-3.4-6-3.4c-3.9,0-7.1,3.2-7.1,7.1c0,1.4,0.4,2.7,1.1,3.8l23.9,38
			c1.2,2,3.5,3.4,6,3.4c3.9,0,7.1-3.2,7.1-7.1C85.7,95.9,85.2,94.6,84.5,93.5"/>
	</g>
	<g>
		<rect x="78.6" y="52.1" class="st2" width="14.1" height="52.3"/>
		<rect x="40.5" y="52.1" class="st2" width="14.1" height="52.3"/>
		<path class="st2" d="M245.4,28.4c4.6,0,8.4,3.8,8.4,8.3s-3.9,8.2-8.4,8.2s-8.2-3.8-8.2-8.2C237.1,32.2,240.9,28.4,245.4,28.4"/>
		<rect x="238.4" y="52.1" class="st2" width="14.1" height="52.3"/>
		<path class="st2" d="M289.3,105.4c-12.5,0-26.9-8.1-26.9-27c0-18.8,14.2-27.6,27.1-27.6c7.9,0,16.8,3.3,22.7,11.1l-9.9,8.4
			c-3.2-4.6-7.2-7.2-12.3-7.2c-6.4,0-13.5,4.1-13.5,14.8c0,10.8,7.5,15.2,13.8,15.2c5.1,0,10.2-3,13.6-9.8l10.1,7.3
			C308.6,100,299.6,105.4,289.3,105.4"/>
		<path class="st2" d="M152.2,104.3h-13.9v-6.7c-3.1,5-8,7.8-15.1,7.8c-10.4,0-19.5-6.5-19.5-21.1V52.1h14.1v30.8
			c0,6.8,3.6,10.7,8.9,10.7c6.3,0,11.4-5.1,11.4-13.8V52.1h14.1L152.2,104.3L152.2,104.3z"/>
		<path class="st2" d="M177.4,59.1v-8.3c0-3.9,3.2-7.1,7.1-7.1h5.4v-14h-5.4c-11.7,0-21.2,9.5-21.2,21.2v53.5h14.1V71.3h12.5V59.1
			H177.4z"/>
		<path class="st2" d="M214.9,59.1v-8.3c0-3.9,3.2-7.1,7.1-7.1h5.4v-14H222c-11.7,0-21.2,9.5-21.2,21.2v53.5h14.1V71.3h12.5V59.1
			H214.9z"/>
	</g>
</g>
<path class="st3" d="M470.8,119.3l-135.6-11.2c-1.9-0.2-3.5-1.6-3.7-3.6l-7.9-58.7c-0.3-2.3,1.4-4.4,3.7-4.7l151.5-14.8
	c2.6-0.3,4.7,1.9,4.5,4.5l-7.9,84.6C475,117.8,473.1,119.5,470.8,119.3"/>
<path class="st4" d="M368.7,97.9c-7.1,0-13.4-4.3-13.4-13.6V68h-7.9v-8.8h7.9v-9.7h10.3v9.7h11.1V68h-11.1v16.2
	c0,3.6,2.3,5.1,5.2,5.1c1.7,0,3.5-0.6,5.2-1.7l3.7,6.9C376.3,96.7,372.4,97.9,368.7,97.9z"/>
<path class="st4" d="M403.3,97.9c-7.1,0-13.4-4.3-13.4-13.6V68H382v-8.8h7.9v-9.7h10.3v9.7h11.1V68h-11.1v16.2
	c0,3.6,2.3,5.1,5.2,5.1c1.7,0,3.5-0.6,5.2-1.7l3.7,6.9C410.9,96.7,407,97.9,403.3,97.9z"/>
<path class="st4" d="M457.6,78.1c0,11.1-8.6,19.9-20.5,19.9c-11.7,0-20.3-8.8-20.3-19.9s8.6-19.9,20.3-19.9
	C449,58.2,457.6,67,457.6,78.1z M427.1,78c0,6.6,4.3,11.1,10.1,11.1c6,0,10.3-4.5,10.3-11.1s-4.3-11-10.3-11
	C431.4,67,427.1,71.4,427.1,78z"/>
</svg>
