<?xml version="1.0" encoding="UTF-8" standalone="no"?>
<svg
   xmlns:dc="http://purl.org/dc/elements/1.1/"
   xmlns:cc="http://creativecommons.org/ns#"
   xmlns:rdf="http://www.w3.org/1999/02/22-rdf-syntax-ns#"
   xmlns:svg="http://www.w3.org/2000/svg"
   xmlns="http://www.w3.org/2000/svg"
   xmlns:sodipodi="http://sodipodi.sourceforge.net/DTD/sodipodi-0.dtd"
   xmlns:inkscape="http://www.inkscape.org/namespaces/inkscape"
   inkscape:version="1.0beta2 (2b71d25, 2019-12-03)"
   sodipodi:docname="ROSRijnland Logo 2020 RGB.svg"
   id="svg927"
   version="1.1"
   viewBox="0 0 415.03872 133.9614"
   height="133.9614"
   width="415.03873">
  <metadata
     id="metadata933">
    <rdf:RDF>
      <cc:Work
         rdf:about="">
        <dc:format>image/svg+xml</dc:format>
        <dc:type
           rdf:resource="http://purl.org/dc/dcmitype/StillImage" />
      </cc:Work>
    </rdf:RDF>
  </metadata>
  <defs
     id="defs931" />
  <sodipodi:namedview
     inkscape:current-layer="svg927"
     inkscape:window-maximized="1"
     inkscape:window-y="23"
     inkscape:window-x="0"
     inkscape:cy="68.827267"
     inkscape:cx="209.35907"
     inkscape:zoom="4.8959135"
     showgrid="false"
     id="namedview929"
     inkscape:window-height="1315"
     inkscape:window-width="2560"
     inkscape:pageshadow="2"
     inkscape:pageopacity="0"
     guidetolerance="10"
     gridtolerance="10"
     objecttolerance="10"
     borderopacity="1"
     inkscape:document-rotation="0"
     bordercolor="#666666"
     pagecolor="#ffffff" />
  <g
     transform="matrix(2,0,0,2,0.00225459,0.02330021)"
     id="g982">
    <path
       inkscape:connector-curvature="0"
       d="m 210.237,103.945 a 7.215,7.215 0 1 1 -1.292,-10.121 7.249,7.249 0 0 1 1.292,10.121"
       transform="translate(-131.118,-58.549)"
       fill="#64e6b4"
       id="path833" />
    <path
       inkscape:connector-curvature="0"
       d="m 193.982,28.165 a 5.082,5.082 0 1 1 5.082,-5.082 5.092,5.092 0 0 1 -5.082,5.082"
       transform="translate(-126.319,-16.234)"
       fill="#64e6b4"
       id="path835" />
    <path
       inkscape:connector-curvature="0"
       d="m 107.274,72.348 a 9.174,9.174 0 1 1 9.174,-9.174 9.181,9.181 0 0 1 -9.174,9.174"
       transform="translate(-74.627,-36.729)"
       fill="#64e6b4"
       id="path837" />
    <path
       inkscape:connector-curvature="0"
       d="m 56.607,57.759 a 3.373,3.373 0 0 1 -0.9,1.421 1.589,1.589 0 0 1 -1.12,0.517 h -7.02 v -7.236 h 7.02 a 2.006,2.006 0 0 1 1.594,0.948 3.62,3.62 0 0 1 0.732,2.369 5.036,5.036 0 0 1 -0.3,1.981 m 4.517,10.25 A 1.048,1.048 0 0 1 60.57,67.363 3.213,3.213 0 0 1 60.4,66.33 c -0.043,-0.388 -0.086,-0.861 -0.172,-1.421 a 5.344,5.344 0 0 0 -0.388,-1.637 4.821,4.821 0 0 0 -0.948,-1.421 3.978,3.978 0 0 0 -0.948,-0.732 4.15,4.15 0 0 0 1.335,-1.034 7.409,7.409 0 0 0 1.335,-2.067 5.731,5.731 0 0 0 0.517,-2.369 7,7 0 0 0 -0.9,-3.575 6.373,6.373 0 0 0 -2.369,-2.412 5.828,5.828 0 0 0 -3.1,-0.861 h -9.224 a 1.757,1.757 0 0 0 -1.378,0.56 1.819,1.819 0 0 0 -0.56,1.378 v 18.476 a 1.976,1.976 0 0 0 1.981,1.985 2,2 0 0 0 1.981,-1.981 v -6.2 h 5.987 a 4.081,4.081 0 0 1 1.292,0.172 3.1,3.1 0 0 1 0.9,0.517 2.3,2.3 0 0 1 0.56,0.818 2.527,2.527 0 0 1 0.172,0.991 9.248,9.248 0 0 0 0.345,2.713 5.121,5.121 0 0 0 0.861,1.68 4.249,4.249 0 0 0 1.077,0.948 3.152,3.152 0 0 0 0.9,0.3 2.275,2.275 0 0 0 1.077,0 1.917,1.917 0 0 0 0.9,-0.517 1.6,1.6 0 0 0 0.388,-1.378 1.922,1.922 0 0 0 -0.9,-1.249"
       transform="translate(-43.6,-33.769)"
       fill="#0a17f7"
       id="path839" />
    <path
       inkscape:connector-curvature="0"
       d="M 127.4,62.225 A 21.912,21.912 0 0 1 108.23,50.9 a 11.195,11.195 0 0 0 0,-21.277 21.959,21.959 0 0 1 19.17,-11.287 22.3,22.3 0 0 1 5.427,0.689 7.065,7.065 0 0 0 6.762,8.959 7.155,7.155 0 0 0 4.652,-1.766 21.982,21.982 0 0 1 5.121,14.082 20.9,20.9 0 0 1 -0.9,6.159 9.076,9.076 0 0 0 -10.862,13.268 21.948,21.948 0 0 1 -10.208,2.5 M 97.333,40.259 a 7.433,7.433 0 0 1 5.814,-7.236 6.811,6.811 0 0 1 1.637,-0.172 7.027,7.027 0 0 1 1.938,0.258 7.408,7.408 0 0 1 0,14.3 7.026,7.026 0 0 1 -1.938,0.258 10.026,10.026 0 0 1 -1.637,-0.172 7.388,7.388 0 0 1 -5.814,-7.236 m 38.978,-20.028 a 3.379,3.379 0 0 1 2.627,-2.541 2.843,2.843 0 0 1 0.6,-0.043 3.372,3.372 0 0 1 3.23,2.5 2.777,2.777 0 0 1 0.129,0.861 3.327,3.327 0 0 1 -1.292,2.627 3.443,3.443 0 0 1 -2.067,0.732 3.318,3.318 0 0 1 -3.316,-3.316 4.34,4.34 0 0 1 0.086,-0.818 m 6.892,39.881 a 6.555,6.555 0 0 1 -1.292,-0.732 5.857,5.857 0 0 1 -1.378,-1.551 5.541,5.541 0 0 1 6.633,-8.054 4.6,4.6 0 0 1 1.551,0.861 5.668,5.668 0 0 1 1.206,1.292 5.518,5.518 0 0 1 -6.719,8.183 m 8.269,-11.844 a 25.8,25.8 0 0 0 1.292,-8.011 25.359,25.359 0 0 0 -6.59,-17.056 6.688,6.688 0 0 0 0.388,-2.283 7,7 0 0 0 -11.93,-5 25.139,25.139 0 0 0 -7.236,-1.077 25.4,25.4 0 0 0 -22.741,14.127 11.200021,11.200021 0 0 0 -0.043,22.4 25.384,25.384 0 0 0 35.32,10.856 9.073,9.073 0 0 0 12.576,-1.766 8.915,8.915 0 0 0 -1.034,-12.189"
       transform="translate(-72.008,-13.9)"
       fill="#0a17f7"
       id="path841" />
    <path
       inkscape:connector-curvature="0"
       d="m 167.758,59.729 a 8.465,8.465 0 0 0 -2.412,-1.249 27.471,27.471 0 0 0 -3.359,-0.818 21.656,21.656 0 0 1 -2.541,-0.646 4.06,4.06 0 0 1 -1.637,-0.991 2.256,2.256 0 0 1 -0.56,-1.594 2.447,2.447 0 0 1 0.474,-1.421 2.951,2.951 0 0 1 1.421,-0.948 7.354,7.354 0 0 1 2.326,-0.345 7.044,7.044 0 0 1 1.809,0.258 8.276,8.276 0 0 1 1.809,0.689 5.841,5.841 0 0 1 1.378,0.861 1.6,1.6 0 0 0 0.861,0.3 1.766,1.766 0 0 0 1.292,-0.56 1.95,1.95 0 0 0 0.56,-1.292 2.029,2.029 0 0 0 -0.948,-1.68 9.17,9.17 0 0 0 -2.886,-1.594 11.014,11.014 0 0 0 -3.833,-0.6 10.432,10.432 0 0 0 -4.049,0.775 6.561,6.561 0 0 0 -2.886,2.24 5.734,5.734 0 0 0 -1.077,3.532 6.77,6.77 0 0 0 0.431,2.5 5.4,5.4 0 0 0 1.335,1.938 6.974,6.974 0 0 0 2.2,1.335 13.757,13.757 0 0 0 3.058,0.775 14.721,14.721 0 0 1 3.015,0.732 4.623,4.623 0 0 1 1.766,1.12 2.365,2.365 0 0 1 0.56,1.637 2.106,2.106 0 0 1 -0.6,1.421 4.193,4.193 0 0 1 -1.594,0.991 5.8,5.8 0 0 1 -2.154,0.388 7.649,7.649 0 0 1 -2.972,-0.517 10.577,10.577 0 0 1 -2.412,-1.507 1.654,1.654 0 0 0 -1.077,-0.388 1.727,1.727 0 0 0 -1.335,0.56 1.9,1.9 0 0 0 -0.517,1.292 2.315,2.315 0 0 0 0.215,0.9 2.262,2.262 0 0 0 0.646,0.818 9.886,9.886 0 0 0 3.4,1.981 13.147,13.147 0 0 0 4.049,0.56 9.723,9.723 0 0 0 4.049,-0.818 7.3,7.3 0 0 0 3.015,-2.283 5.653,5.653 0 0 0 1.163,-3.575 7.359,7.359 0 0 0 -0.474,-2.756 4.912,4.912 0 0 0 -1.507,-2.024"
       transform="translate(-105.995,-33.37)"
       fill="#0a17f7"
       id="path843" />
    <path
       inkscape:connector-curvature="0"
       d="m 262.451,59.769 h -7.494 v -8.614 h 7.322 a 3.7,3.7 0 0 1 2.713,1.12 3.831,3.831 0 0 1 1.077,2.843 5.314,5.314 0 0 1 -0.517,2.369 4.641,4.641 0 0 1 -1.335,1.637 3.543,3.543 0 0 1 -1.766,0.646 m 2.756,4.135 a 3.987,3.987 0 0 1 0.3,1.723 10.357,10.357 0 0 0 0.3,2.886 4.472,4.472 0 0 0 0.818,1.637 3.652,3.652 0 0 0 0.991,0.861 0.989,0.989 0 0 0 0.6,0.172 1.9,1.9 0 0 0 0.689,-0.086 1.312,1.312 0 0 0 0.56,-0.388 1.073,1.073 0 0 0 0.172,-0.948 1.481,1.481 0 0 0 -0.6,-0.775 1.4,1.4 0 0 1 -0.56,-0.646 4.539,4.539 0 0 1 -0.3,-1.12 16.978,16.978 0 0 1 -0.172,-1.9 5.812,5.812 0 0 0 -0.56,-2.369 4.5,4.5 0 0 0 -1.421,-1.68 6.856,6.856 0 0 0 -0.948,-0.56 6.59,6.59 0 0 0 1.724,-1.112 6.146,6.146 0 0 0 1.421,-2.024 6.587,6.587 0 0 0 -0.345,-5.814 6,6 0 0 0 -2.283,-2.24 6.324,6.324 0 0 0 -3.23,-0.818 h -8.872 a 1.173,1.173 0 0 0 -0.9,0.388 1.24,1.24 0 0 0 -0.388,0.9 v 19.9 a 1.335,1.335 0 0 0 2.67,0 v -7.84 h 6.762 a 4.839,4.839 0 0 1 1.378,0.172 3.1,3.1 0 0 1 1.206,0.56 2.478,2.478 0 0 1 0.991,1.12"
       transform="translate(-162.356,-33.712)"
       fill="#64e6b4"
       id="path845" />
    <path
       inkscape:connector-curvature="0"
       d="m 304.592,73.587 a 1.173,1.173 0 0 0 0.9,-0.388 1.266,1.266 0 0 0 0.388,-0.948 v -9.26 a 1.173,1.173 0 0 0 -0.388,-0.9 1.24,1.24 0 0 0 -0.9,-0.388 1.173,1.173 0 0 0 -0.9,0.388 1.24,1.24 0 0 0 -0.388,0.9 v 9.26 a 1.505,1.505 0 0 0 0.345,0.948 1.266,1.266 0 0 0 0.948,0.388"
       transform="translate(-191.447,-41.113)"
       fill="#64e6b4"
       id="path847" />
    <path
       inkscape:connector-curvature="0"
       d="m 341.649,78.356 a 1.173,1.173 0 0 0 0.9,-0.388 1.266,1.266 0 0 0 0.388,-0.948 v -8.958 a 3.6,3.6 0 0 1 0.689,-2.2 5.042,5.042 0 0 1 1.809,-1.594 5.307,5.307 0 0 1 2.455,-0.6 4.034,4.034 0 0 1 2.326,0.6 3,3 0 0 1 1.206,1.594 5.874,5.874 0 0 1 0.388,2.2 v 8.959 a 1.336,1.336 0 0 0 0.388,0.948 1.24,1.24 0 0 0 0.9,0.388 1.173,1.173 0 0 0 0.9,-0.388 1.266,1.266 0 0 0 0.388,-0.948 v -9.045 a 10.189,10.189 0 0 0 -0.517,-3.359 4.987,4.987 0 0 0 -1.766,-2.412 5.748,5.748 0 0 0 -3.446,-0.9 6.2,6.2 0 0 0 -2.2,0.388 8.552,8.552 0 0 0 -1.938,1.077 6.933,6.933 0 0 0 -1.464,1.507 c -0.043,0.043 -0.043,0.129 -0.086,0.172 V 62.98 a 1.308,1.308 0 0 0 -0.345,-0.9 1.2,1.2 0 0 0 -0.948,-0.388 1.173,1.173 0 0 0 -0.9,0.388 1.24,1.24 0 0 0 -0.388,0.9 v 14 a 1.336,1.336 0 0 0 0.388,0.948 0.912,0.912 0 0 0 0.861,0.431"
       transform="translate(-212.568,-40.885)"
       fill="#64e6b4"
       id="path849" />
    <path
       inkscape:connector-curvature="0"
       d="m 385.749,69.475 a 1.336,1.336 0 0 0 0.948,-0.388 1.266,1.266 0 0 0 0.388,-0.948 V 46.992 a 1.308,1.308 0 0 0 -0.345,-0.9 1.2,1.2 0 0 0 -0.948,-0.388 1.173,1.173 0 0 0 -0.9,0.388 1.24,1.24 0 0 0 -0.388,0.9 v 21.19 a 1.505,1.505 0 0 0 0.345,0.948 1.39,1.39 0 0 0 0.9,0.345"
       transform="translate(-237.674,-32.004)"
       fill="#64e6b4"
       id="path851" />
    <path
       inkscape:connector-curvature="0"
       d="m 412.349,73.344 a 5.915,5.915 0 0 1 -1.938,2.283 5.272,5.272 0 0 1 -5.642,0 5.619,5.619 0 0 1 -1.938,-2.283 7.916,7.916 0 0 1 0,-6.461 5.364,5.364 0 0 1 1.938,-2.2 5.2,5.2 0 0 1 2.8,-0.818 4.9,4.9 0 0 1 2.843,0.818 5.781,5.781 0 0 1 1.938,2.24 7.06,7.06 0 0 1 0.689,3.187 7.376,7.376 0 0 1 -0.689,3.23 m 2.757,4.738 a 1.266,1.266 0 0 0 0.388,-0.948 V 63.007 a 1.308,1.308 0 0 0 -0.345,-0.9 1.2,1.2 0 0 0 -0.948,-0.388 1.173,1.173 0 0 0 -0.9,0.388 1.24,1.24 0 0 0 -0.388,0.9 V 64.3 a 5.276,5.276 0 0 0 -1.034,-1.163 6.945,6.945 0 0 0 -4.652,-1.637 7.146,7.146 0 0 0 -3.876,1.12 7.489,7.489 0 0 0 -2.713,3.058 9.415,9.415 0 0 0 -1.034,4.479 10.07,10.07 0 0 0 0.991,4.479 8,8 0 0 0 2.756,3.1 6.937,6.937 0 0 0 3.919,1.12 6.73,6.73 0 0 0 2.455,-0.474 6.606,6.606 0 0 0 1.981,-1.206 8.919,8.919 0 0 0 1.206,-1.378 v 1.378 a 1.336,1.336 0 0 0 0.388,0.948 1.24,1.24 0 0 0 0.9,0.388 1.488,1.488 0 0 0 0.9,-0.431"
       transform="translate(-246.271,-40.999)"
       fill="#64e6b4"
       id="path853" />
    <path
       inkscape:connector-curvature="0"
       d="m 459.115,62.3 a 5.748,5.748 0 0 0 -3.446,-0.9 6.2,6.2 0 0 0 -2.2,0.388 8.551,8.551 0 0 0 -1.938,1.077 6.931,6.931 0 0 0 -1.464,1.507 c -0.043,0.043 -0.043,0.129 -0.086,0.172 V 63.08 a 1.308,1.308 0 0 0 -0.345,-0.9 1.2,1.2 0 0 0 -0.948,-0.388 1.173,1.173 0 0 0 -0.9,0.388 1.24,1.24 0 0 0 -0.388,0.9 v 14 a 1.336,1.336 0 0 0 0.388,0.948 1.24,1.24 0 0 0 0.9,0.388 1.173,1.173 0 0 0 0.9,-0.388 1.266,1.266 0 0 0 0.388,-0.948 v -8.961 a 3.6,3.6 0 0 1 0.689,-2.2 5.042,5.042 0 0 1 1.809,-1.594 5.306,5.306 0 0 1 2.455,-0.6 4.034,4.034 0 0 1 2.326,0.6 3,3 0 0 1 1.206,1.594 5.874,5.874 0 0 1 0.388,2.2 v 8.959 a 1.336,1.336 0 0 0 0.388,0.948 1.24,1.24 0 0 0 0.9,0.388 1.173,1.173 0 0 0 0.9,-0.388 1.266,1.266 0 0 0 0.388,-0.948 v -9.045 a 10.189,10.189 0 0 0 -0.517,-3.359 4.7,4.7 0 0 0 -1.809,-2.369"
       transform="translate(-273.483,-40.942)"
       fill="#64e6b4"
       id="path855" />
    <path
       inkscape:connector-curvature="0"
       d="m 501.292,64.349 a 5.489,5.489 0 0 1 -1.938,2.24 5.272,5.272 0 0 1 -5.642,0 5.619,5.619 0 0 1 -1.938,-2.283 7.815,7.815 0 0 1 0,-6.417 5.781,5.781 0 0 1 1.938,-2.24 5.272,5.272 0 0 1 5.642,0 5.781,5.781 0 0 1 1.938,2.24 7.119,7.119 0 0 1 0.689,3.23 6.6,6.6 0 0 1 -0.689,3.23 m 2.756,-18.262 a 1.2,1.2 0 0 0 -0.948,-0.388 1.173,1.173 0 0 0 -0.9,0.388 1.24,1.24 0 0 0 -0.388,0.9 V 55.3 a 6.8,6.8 0 0 0 -5.685,-2.843 7.146,7.146 0 0 0 -3.876,1.12 7.488,7.488 0 0 0 -2.713,3.058 9.415,9.415 0 0 0 -1.034,4.479 9.538,9.538 0 0 0 1.034,4.479 8.356,8.356 0 0 0 2.756,3.1 7.185,7.185 0 0 0 3.919,1.12 6.729,6.729 0 0 0 2.455,-0.474 7.616,7.616 0 0 0 1.981,-1.206 6.821,6.821 0 0 0 1.163,-1.378 v 1.421 a 1.336,1.336 0 0 0 0.388,0.948 1.24,1.24 0 0 0 0.9,0.388 1.173,1.173 0 0 0 0.9,-0.388 1.266,1.266 0 0 0 0.388,-0.948 V 46.992 a 0.973,0.973 0 0 0 -0.345,-0.9"
       transform="translate(-296.881,-32.004)"
       fill="#64e6b4"
       id="path857" />
    <path
       inkscape:connector-curvature="0"
       d="m 303.287,78.193 a 1.265,1.265 0 0 0 1.12,1.421 14.5,14.5 0 0 0 1.9,0.129 7.674,7.674 0 0 0 5.039,-1.594 c 1.464,-1.292 2.2,-3.273 2.2,-5.858 v -8.7 a 1.292,1.292 0 0 0 -2.584,0 v 8.7 c 0,1.852 -0.431,3.187 -1.335,3.962 -0.991,0.861 -2.627,1.163 -4.867,0.861 a 1.274,1.274 0 0 0 -1.464,1.077"
       transform="translate(-191.434,-41.454)"
       fill="#64e6b4"
       id="path859" />
    <path
       inkscape:connector-curvature="0"
       d="m 304.307,51.715 a 1.507,1.507 0 1 0 -1.507,-1.507 1.526,1.526 0 0 0 1.507,1.507"
       transform="translate(-191.162,-33.712)"
       fill="#64e6b4"
       id="path861" />
    <path
       inkscape:connector-curvature="0"
       d="m 322.007,51.715 a 1.507,1.507 0 1 0 -1.507,-1.507 1.556,1.556 0 0 0 1.507,1.507"
       transform="translate(-201.239,-33.712)"
       fill="#64e6b4"
       id="path863" />
    <path
       inkscape:connector-curvature="0"
       d="m 253.735,114.5 a 1.342,1.342 0 0 0 -1.335,1.335 v 18.391 a 1.335,1.335 0 0 0 2.67,0 v -18.391 a 1.315,1.315 0 0 0 -1.335,-1.335"
       transform="translate(-162.47,-71.172)"
       fill="#64e6b4"
       id="path865" />
    <path
       inkscape:connector-curvature="0"
       d="m 285.047,116.137 1.551,3.747 h -3.1 z m -2.929,7.02 a 0.4,0.4 0 0 0 0.172,-0.258 l 0.818,-2.024 h 3.919 l 0.818,2.024 a 0.9,0.9 0 0 0 0.172,0.258 0.622,0.622 0 0 0 0.3,0.086 0.573,0.573 0 0 0 0.345,-0.129 0.489,0.489 0 0 0 0.129,-0.345 0.388,0.388 0 0 0 -0.043,-0.215 l -3.187,-7.71 a 0.9,0.9 0 0 0 -0.172,-0.258 0.622,0.622 0 0 0 -0.3,-0.086 0.41,0.41 0 0 0 -0.3,0.086 0.441,0.441 0 0 0 -0.215,0.258 l -3.23,7.8 c 0,0.086 -0.043,0.129 -0.043,0.172 a 0.391,0.391 0 0 0 0.129,0.3 0.424,0.424 0 0 0 0.345,0.129 0.667,0.667 0 0 0 0.345,-0.086"
       transform="translate(-178.922,-71.172)"
       fill="#0a17f7"
       id="path867" />
    <path
       inkscape:connector-curvature="0"
       d="m 305.593,126.117 a 2.4,2.4 0 0 0 0.818,-0.431 0.668,0.668 0 0 0 0.3,-0.474 0.489,0.489 0 0 0 -0.129,-0.345 0.424,0.424 0 0 0 -0.345,-0.129 0.335,0.335 0 0 0 -0.3,0.129 1.19,1.19 0 0 1 -0.345,0.258 1.29,1.29 0 0 1 -0.431,0.172 2.7,2.7 0 0 1 -0.689,0.086 2.049,2.049 0 0 1 -1.938,-1.163 2.813,2.813 0 0 1 -0.3,-1.249 2.439,2.439 0 0 1 0.3,-1.249 2.61,2.61 0 0 1 0.818,-0.861 2.185,2.185 0 0 1 1.206,-0.3 2.456,2.456 0 0 1 0.56,0.043 2.678,2.678 0 0 1 0.431,0.129 c 0.086,0.043 0.172,0.129 0.258,0.172 a 0.939,0.939 0 0 0 0.215,0.172 0.612,0.612 0 0 0 0.258,0.086 0.391,0.391 0 0 0 0.3,-0.129 0.41,0.41 0 0 0 0.086,-0.3 0.562,0.562 0 0 0 -0.3,-0.517 2.068,2.068 0 0 0 -0.818,-0.388 4.8,4.8 0 0 0 -1.163,-0.129 3,3 0 0 0 -2.8,1.637 3.7,3.7 0 0 0 -0.388,1.68 3.755,3.755 0 0 0 0.388,1.723 3.254,3.254 0 0 0 1.077,1.206 3,3 0 0 0 1.637,0.431 6.777,6.777 0 0 0 1.292,-0.258"
       transform="translate(-190.252,-74.132)"
       fill="#0a17f7"
       id="path869" />
    <path
       inkscape:connector-curvature="0"
       d="m 322.01,124.008 a 2.066,2.066 0 0 1 -0.732,0.861 2.074,2.074 0 0 1 -2.154,0 2.373,2.373 0 0 1 -0.732,-0.861 2.811,2.811 0 0 1 -0.258,-1.249 2.946,2.946 0 0 1 0.258,-1.249 2.373,2.373 0 0 1 0.732,-0.861 1.85,1.85 0 0 1 1.077,-0.3 1.763,1.763 0 0 1 1.077,0.3 2.373,2.373 0 0 1 0.732,0.861 2.811,2.811 0 0 1 0.258,1.249 2.945,2.945 0 0 1 -0.258,1.249 m 0.732,-4.479 a 0.445,0.445 0 0 0 -0.474,0.474 v 0.517 c -0.129,-0.172 -0.258,-0.3 -0.388,-0.474 a 2.16,2.16 0 0 0 -0.818,-0.474 2.527,2.527 0 0 0 -0.991,-0.172 2.672,2.672 0 0 0 -1.507,0.431 3.484,3.484 0 0 0 -1.077,1.163 4.023,4.023 0 0 0 0,3.446 2.922,2.922 0 0 0 1.077,1.206 2.578,2.578 0 0 0 1.507,0.431 2.318,2.318 0 0 0 0.948,-0.172 2.344,2.344 0 0 0 0.775,-0.474 5.16,5.16 0 0 0 0.474,-0.517 v 0.517 a 0.474,0.474 0 1 0 0.948,0 v -5.47 a 0.489,0.489 0 0 0 -0.129,-0.345 0.812,0.812 0 0 0 -0.345,-0.086"
       transform="translate(-199.303,-73.961)"
       fill="#0a17f7"
       id="path871" />
    <path
       inkscape:connector-curvature="0"
       d="m 340.8,120.593 a 2.066,2.066 0 0 1 -0.732,0.861 1.9,1.9 0 0 1 -1.12,0.3 1.85,1.85 0 0 1 -1.077,-0.3 2.373,2.373 0 0 1 -0.732,-0.861 3.148,3.148 0 0 1 0,-2.5 2.065,2.065 0 0 1 0.732,-0.861 1.85,1.85 0 0 1 1.077,-0.3 1.763,1.763 0 0 1 1.077,0.3 2.373,2.373 0 0 1 0.732,0.861 2.945,2.945 0 0 1 0.258,1.249 2.324,2.324 0 0 1 -0.215,1.249 m 0.689,-7.193 a 0.445,0.445 0 0 0 -0.474,0.474 v 3.23 a 2.257,2.257 0 0 0 -0.431,-0.474 2.159,2.159 0 0 0 -0.818,-0.474 2.527,2.527 0 0 0 -0.991,-0.172 2.672,2.672 0 0 0 -1.507,0.431 3.254,3.254 0 0 0 -1.077,1.206 4.022,4.022 0 0 0 0,3.446 2.922,2.922 0 0 0 1.077,1.206 2.578,2.578 0 0 0 1.507,0.431 2.318,2.318 0 0 0 0.948,-0.172 2.344,2.344 0 0 0 0.775,-0.474 2.966,2.966 0 0 0 0.474,-0.56 v 0.56 a 0.474,0.474 0 1 0 0.948,0 v -8.183 a 0.7,0.7 0 0 0 -0.129,-0.388 0.412,0.412 0 0 0 -0.3,-0.086"
       transform="translate(-209.949,-70.545)"
       fill="#0a17f7"
       id="path873" />
    <path
       inkscape:connector-curvature="0"
       d="m 355.963,121.754 a 1.8,1.8 0 0 1 0.474,-0.732 2.812,2.812 0 0 1 0.646,-0.431 2.012,2.012 0 0 1 0.732,-0.129 1.961,1.961 0 0 1 0.861,0.215 1.728,1.728 0 0 1 0.689,0.56 1.53,1.53 0 0 1 0.345,0.861 v 0.086 h -3.876 a 1.64,1.64 0 0 1 0.129,-0.431 m 2.154,4.479 a 2.549,2.549 0 0 0 1.249,-0.3 2.7,2.7 0 0 0 0.948,-0.689 0.6,0.6 0 0 0 0.215,-0.388 0.442,0.442 0 0 0 -0.431,-0.431 0.465,0.465 0 0 0 -0.3,0.129 3.135,3.135 0 0 1 -0.388,0.345 2.321,2.321 0 0 1 -0.56,0.3 2.086,2.086 0 0 1 -0.775,0.129 2.185,2.185 0 0 1 -1.206,-0.3 2.61,2.61 0 0 1 -0.818,-0.861 2.212,2.212 0 0 1 -0.258,-1.077 h 4.479 a 0.489,0.489 0 0 0 0.345,-0.129 0.532,0.532 0 0 0 0.172,-0.345 2.811,2.811 0 0 0 -0.258,-1.249 3.068,3.068 0 0 0 -0.646,-0.948 2.737,2.737 0 0 0 -0.948,-0.6 3.235,3.235 0 0 0 -1.12,-0.215 2.981,2.981 0 0 0 -1.464,0.388 2.918,2.918 0 0 0 -1.12,1.163 3.573,3.573 0 0 0 -0.433,1.846 3.305,3.305 0 0 0 0.431,1.723 3.015,3.015 0 0 0 1.163,1.163 4.234,4.234 0 0 0 1.723,0.345"
       transform="translate(-220.766,-74.075)"
       fill="#0a17f7"
       id="path875" />
    <path
       inkscape:connector-curvature="0"
       d="m 378.455,125.473 v -3.359 a 1.553,1.553 0 0 1 0.258,-0.861 1.994,1.994 0 0 1 0.689,-0.646 1.749,1.749 0 0 1 0.9,-0.215 1.7,1.7 0 0 1 0.861,0.215 1.218,1.218 0 0 1 0.474,0.646 2.777,2.777 0 0 1 0.129,0.861 v 3.359 a 0.445,0.445 0 0 0 0.474,0.474 0.7,0.7 0 0 0 0.388,-0.129 0.489,0.489 0 0 0 0.129,-0.345 v -3.4 a 4.337,4.337 0 0 0 -0.215,-1.335 1.876,1.876 0 0 0 -0.689,-0.948 2.2,2.2 0 0 0 -1.292,-0.345 2.736,2.736 0 0 0 -0.991,0.215 2.649,2.649 0 0 0 -0.818,0.517 3.4,3.4 0 0 0 -0.517,0.646 2.131,2.131 0 0 0 -0.6,-0.991 2.35,2.35 0 0 0 -2.24,-0.258 4.089,4.089 0 0 0 -0.732,0.431 2.107,2.107 0 0 0 -0.517,0.56 v -0.474 a 0.474,0.474 0 1 0 -0.948,0 v 5.384 a 0.474,0.474 0 1 0 0.948,0 v -3.4 a 1.553,1.553 0 0 1 0.258,-0.861 1.726,1.726 0 0 1 0.646,-0.6 1.57,1.57 0 0 1 0.9,-0.215 1.7,1.7 0 0 1 0.861,0.215 1.208,1.208 0 0 1 0.431,0.6 2.589,2.589 0 0 1 0.129,0.861 v 3.4 a 0.488,0.488 0 0 0 0.818,0.345 c 0.215,-0.086 0.258,-0.172 0.258,-0.345"
       transform="translate(-231.241,-73.961)"
       fill="#0a17f7"
       id="path877" />
    <path
       inkscape:connector-curvature="0"
       d="m 411.364,122.989 a 4.709,4.709 0 0 0 -0.646,-0.345 5.207,5.207 0 0 0 -0.775,-0.215 8.135,8.135 0 0 1 -0.775,-0.258 1.386,1.386 0 0 1 -0.56,-0.345 0.744,0.744 0 0 1 -0.215,-0.56 0.731,0.731 0 0 1 0.172,-0.56 1.779,1.779 0 0 1 0.474,-0.3 2.521,2.521 0 0 1 0.56,-0.086 1.928,1.928 0 0 1 0.861,0.172 1.8,1.8 0 0 1 0.646,0.474 0.372,0.372 0 0 0 0.258,0.129 0.623,0.623 0 0 0 0.3,-0.086 0.424,0.424 0 0 0 0.043,-0.646 1.907,1.907 0 0 0 -0.646,-0.517 2.487,2.487 0 0 0 -0.732,-0.258 4.243,4.243 0 0 0 -0.732,-0.086 3.05,3.05 0 0 0 -1.12,0.215 1.724,1.724 0 0 0 -0.818,0.646 1.468,1.468 0 0 0 -0.3,0.948 1.64,1.64 0 0 0 0.172,0.818 2.108,2.108 0 0 0 0.517,0.56 2.891,2.891 0 0 0 0.732,0.345 c 0.258,0.086 0.517,0.172 0.818,0.258 0.258,0.086 0.517,0.129 0.732,0.215 a 1.77,1.77 0 0 1 0.56,0.345 0.836,0.836 0 0 1 0,1.12 1.034,1.034 0 0 1 -0.517,0.3 2.909,2.909 0 0 1 -0.6,0.086 2.1,2.1 0 0 1 -1.077,-0.258 2.821,2.821 0 0 1 -0.775,-0.646 0.436,0.436 0 0 0 -0.3,-0.172 0.363,0.363 0 0 0 -0.3,0.086 0.446,0.446 0 0 0 -0.215,0.3 1.013,1.013 0 0 0 0.086,0.345 2.393,2.393 0 0 0 1.163,0.9 3.675,3.675 0 0 0 1.335,0.258 3.235,3.235 0 0 0 1.12,-0.215 1.835,1.835 0 0 0 0.861,-0.646 1.51,1.51 0 0 0 0.3,-0.991 1.54,1.54 0 0 0 -0.172,-0.818 0.838,0.838 0 0 0 -0.431,-0.517"
       transform="translate(-250.54,-74.018)"
       fill="#0a17f7"
       id="path879" />
    <path
       inkscape:connector-curvature="0"
       d="m 427.239,124.739 a 0.335,0.335 0 0 0 -0.3,0.129 1.189,1.189 0 0 1 -0.345,0.258 1.29,1.29 0 0 1 -0.431,0.172 2.7,2.7 0 0 1 -0.689,0.086 2.049,2.049 0 0 1 -1.938,-1.163 2.813,2.813 0 0 1 -0.3,-1.249 2.44,2.44 0 0 1 0.3,-1.249 2.61,2.61 0 0 1 0.818,-0.861 2.185,2.185 0 0 1 1.206,-0.3 2.456,2.456 0 0 1 0.56,0.043 2.677,2.677 0 0 1 0.431,0.129 c 0.086,0.043 0.172,0.129 0.258,0.172 a 0.94,0.94 0 0 0 0.215,0.172 0.612,0.612 0 0 0 0.258,0.086 0.391,0.391 0 0 0 0.3,-0.129 0.41,0.41 0 0 0 0.086,-0.3 0.562,0.562 0 0 0 -0.3,-0.517 2.069,2.069 0 0 0 -0.818,-0.388 4.8,4.8 0 0 0 -1.163,-0.129 3,3 0 0 0 -2.8,1.637 3.7,3.7 0 0 0 -0.388,1.68 3.755,3.755 0 0 0 0.388,1.723 3.253,3.253 0 0 0 1.077,1.206 3,3 0 0 0 1.637,0.431 3.551,3.551 0 0 0 1.206,-0.172 2.4,2.4 0 0 0 0.818,-0.431 0.668,0.668 0 0 0 0.3,-0.474 0.489,0.489 0 0 0 -0.129,-0.345 c 0,-0.172 -0.129,-0.215 -0.258,-0.215"
       transform="translate(-259.137,-74.132)"
       fill="#0a17f7"
       id="path881" />
    <path
       inkscape:connector-curvature="0"
       d="m 444.355,118.768 a 4.06,4.06 0 0 0 -0.215,-1.292 1.875,1.875 0 0 0 -0.689,-0.948 2.2,2.2 0 0 0 -1.292,-0.345 1.748,1.748 0 0 0 -0.818,0.172 2.521,2.521 0 0 0 -0.732,0.431 2.266,2.266 0 0 0 -0.517,0.6 0.042,0.042 0 0 1 -0.043,0.043 v -3.359 a 0.474,0.474 0 1 0 -0.948,0 v 8.183 a 0.474,0.474 0 1 0 0.948,0 v -3.4 a 1.641,1.641 0 0 1 0.951,-1.463 1.806,1.806 0 0 1 0.948,-0.215 1.7,1.7 0 0 1 0.861,0.215 1.643,1.643 0 0 1 0.474,0.6 2.59,2.59 0 0 1 0.129,0.861 v 3.4 a 0.474,0.474 0 1 0 0.948,0 v -3.489 z"
       transform="translate(-268.758,-70.659)"
       fill="#0a17f7"
       id="path883" />
    <path
       inkscape:connector-curvature="0"
       d="m 456.963,121.754 a 1.8,1.8 0 0 1 0.474,-0.732 2.812,2.812 0 0 1 0.646,-0.431 2.188,2.188 0 0 1 0.732,-0.129 1.961,1.961 0 0 1 0.861,0.215 1.728,1.728 0 0 1 0.689,0.56 1.53,1.53 0 0 1 0.345,0.861 v 0.086 h -3.876 a 1.64,1.64 0 0 1 0.129,-0.431 m 4.565,3.144 a 0.442,0.442 0 0 0 -0.431,-0.431 0.465,0.465 0 0 0 -0.3,0.129 3.135,3.135 0 0 1 -0.388,0.345 1.335,1.335 0 0 1 -0.56,0.258 2.086,2.086 0 0 1 -0.775,0.129 2.185,2.185 0 0 1 -1.206,-0.3 2.611,2.611 0 0 1 -0.818,-0.861 2.212,2.212 0 0 1 -0.258,-1.077 h 4.479 a 0.489,0.489 0 0 0 0.345,-0.129 0.532,0.532 0 0 0 0.172,-0.345 2.811,2.811 0 0 0 -0.258,-1.249 3.068,3.068 0 0 0 -0.646,-0.948 2.737,2.737 0 0 0 -0.948,-0.6 3.235,3.235 0 0 0 -1.12,-0.215 2.981,2.981 0 0 0 -1.464,0.388 2.918,2.918 0 0 0 -1.12,1.163 3.573,3.573 0 0 0 -0.432,1.846 3.305,3.305 0 0 0 0.431,1.723 3.015,3.015 0 0 0 1.163,1.163 3.305,3.305 0 0 0 1.723,0.431 2.549,2.549 0 0 0 1.249,-0.3 2.7,2.7 0 0 0 0.948,-0.689 0.582,0.582 0 0 0 0.215,-0.431"
       transform="translate(-278.265,-74.075)"
       fill="#0a17f7"
       id="path885" />
    <path
       inkscape:connector-curvature="0"
       d="m 288.991,149.288 a 3.393,3.393 0 0 1 -1.077,1.249 2.905,2.905 0 0 1 -1.637,0.431 2.857,2.857 0 0 1 -1.594,-0.431 3.171,3.171 0 0 1 -1.12,-1.249 4.415,4.415 0 0 1 0,-3.618 3.141,3.141 0 0 1 1.12,-1.249 2.857,2.857 0 0 1 1.594,-0.431 3,3 0 0 1 1.637,0.431 2.792,2.792 0 0 1 1.077,1.249 4.415,4.415 0 0 1 0,3.618 m 0.3,-5 a 4.191,4.191 0 0 0 -1.335,-0.948 4.267,4.267 0 0 0 -3.359,0 3.615,3.615 0 0 0 -1.335,0.948 3.932,3.932 0 0 0 -0.861,1.421 5.322,5.322 0 0 0 0,3.532 3.932,3.932 0 0 0 0.861,1.421 4.191,4.191 0 0 0 1.335,0.948 4.266,4.266 0 0 0 3.359,0 3.615,3.615 0 0 0 1.335,-0.948 3.417,3.417 0 0 0 0.861,-1.421 5.322,5.322 0 0 0 0,-3.532 4.065,4.065 0 0 0 -0.861,-1.421"
       transform="translate(-179.378,-87.397)"
       fill="#0a17f7"
       id="path887" />
    <path
       inkscape:connector-curvature="0"
       d="m 311.424,152.922 a 2.373,2.373 0 0 1 -0.732,0.861 1.85,1.85 0 0 1 -1.077,0.3 1.989,1.989 0 0 1 -1.12,-0.3 2.066,2.066 0 0 1 -0.732,-0.861 2.811,2.811 0 0 1 -0.258,-1.249 2.946,2.946 0 0 1 0.258,-1.249 2.373,2.373 0 0 1 0.732,-0.861 1.9,1.9 0 0 1 1.12,-0.3 1.763,1.763 0 0 1 1.077,0.3 2.066,2.066 0 0 1 0.732,0.861 3.148,3.148 0 0 1 0,2.5 m -0.215,-4.092 a 2.578,2.578 0 0 0 -1.507,-0.431 2.507,2.507 0 0 0 -0.818,0.129 2.574,2.574 0 0 0 -0.689,0.345 1.485,1.485 0 0 0 -0.517,0.517 c -0.043,0.043 -0.086,0.129 -0.129,0.172 v -0.6 a 0.474,0.474 0 1 0 -0.948,0 v 7.925 a 0.474,0.474 0 1 0 0.948,0 v -2.972 c 0,0.043 0.043,0.043 0.043,0.086 a 3.31,3.31 0 0 0 0.56,0.517 3.94,3.94 0 0 0 0.732,0.388 2.777,2.777 0 0 0 0.861,0.129 2.672,2.672 0 0 0 1.507,-0.431 3.363,3.363 0 0 0 1.034,-1.163 4.022,4.022 0 0 0 0,-3.446 3.14,3.14 0 0 0 -1.077,-1.163"
       transform="translate(-193.326,-90.471)"
       fill="#0a17f7"
       id="path889" />
    <path
       inkscape:connector-curvature="0"
       d="m 325.874,142.2 a 0.445,0.445 0 0 0 -0.474,0.474 v 8.183 a 0.474,0.474 0 1 0 0.948,0 v -8.183 a 0.489,0.489 0 0 0 -0.129,-0.345 c -0.043,-0.086 -0.172,-0.129 -0.345,-0.129"
       transform="translate(-204.029,-86.941)"
       fill="#0a17f7"
       id="path891" />
    <path
       inkscape:connector-curvature="0"
       d="m 337.353,150.927 h -3.876 a 1.265,1.265 0 0 1 0.129,-0.431 1.8,1.8 0 0 1 0.474,-0.732 2.813,2.813 0 0 1 0.646,-0.431 2.188,2.188 0 0 1 0.732,-0.129 1.961,1.961 0 0 1 0.861,0.215 1.728,1.728 0 0 1 0.689,0.56 1.53,1.53 0 0 1 0.345,0.861 z m 0.129,-1.809 a 2.737,2.737 0 0 0 -0.948,-0.6 3.235,3.235 0 0 0 -1.12,-0.215 2.981,2.981 0 0 0 -1.464,0.388 2.918,2.918 0 0 0 -1.12,1.163 3.573,3.573 0 0 0 -0.431,1.852 3.305,3.305 0 0 0 0.431,1.723 3.015,3.015 0 0 0 1.163,1.163 3.305,3.305 0 0 0 1.723,0.431 2.549,2.549 0 0 0 1.249,-0.3 2.7,2.7 0 0 0 0.948,-0.689 0.6,0.6 0 0 0 0.215,-0.388 0.442,0.442 0 0 0 -0.431,-0.431 0.465,0.465 0 0 0 -0.3,0.129 3.131,3.131 0 0 1 -0.388,0.345 1.335,1.335 0 0 1 -0.56,0.258 2.087,2.087 0 0 1 -0.775,0.129 2.185,2.185 0 0 1 -1.206,-0.3 2.61,2.61 0 0 1 -0.818,-0.861 2.212,2.212 0 0 1 -0.258,-1.077 h 4.479 a 0.489,0.489 0 0 0 0.345,-0.129 0.532,0.532 0 0 0 0.172,-0.345 2.811,2.811 0 0 0 -0.258,-1.249 2.64,2.64 0 0 0 -0.646,-0.991"
       transform="translate(-208.014,-90.414)"
       fill="#0a17f7"
       id="path893" />
    <path
       inkscape:connector-curvature="0"
       d="m 362.453,149.384 a 2.066,2.066 0 0 1 -0.732,0.861 1.9,1.9 0 0 1 -1.12,0.3 2.238,2.238 0 0 1 -1.077,-0.3 2.374,2.374 0 0 1 -0.732,-0.861 3.148,3.148 0 0 1 0,-2.5 2.066,2.066 0 0 1 0.732,-0.861 1.85,1.85 0 0 1 1.077,-0.3 1.763,1.763 0 0 1 1.077,0.3 2.373,2.373 0 0 1 0.732,0.861 2.946,2.946 0 0 1 0.258,1.249 2.324,2.324 0 0 1 -0.215,1.249 m 0.732,-7.193 a 0.445,0.445 0 0 0 -0.474,0.474 v 3.23 a 2.257,2.257 0 0 0 -0.431,-0.474 2.159,2.159 0 0 0 -0.818,-0.474 2.527,2.527 0 0 0 -0.991,-0.172 2.672,2.672 0 0 0 -1.507,0.431 3.254,3.254 0 0 0 -1.077,1.206 4.022,4.022 0 0 0 0,3.446 2.922,2.922 0 0 0 1.077,1.206 2.578,2.578 0 0 0 1.507,0.431 2.318,2.318 0 0 0 0.948,-0.172 2.345,2.345 0 0 0 0.775,-0.474 2.966,2.966 0 0 0 0.474,-0.56 v 0.56 a 0.474,0.474 0 1 0 0.948,0 v -8.183 a 0.7,0.7 0 0 0 -0.129,-0.388 c -0.086,-0.129 -0.172,-0.086 -0.3,-0.086"
       transform="translate(-222.303,-86.932)"
       fill="#0a17f7"
       id="path895" />
    <path
       inkscape:connector-curvature="0"
       d="m 377.674,148.4 a 0.445,0.445 0 0 0 -0.474,0.474 v 5.513 a 0.474,0.474 0 1 0 0.948,0 v -5.513 a 0.489,0.489 0 0 0 -0.129,-0.345 0.424,0.424 0 0 0 -0.345,-0.129"
       transform="translate(-233.518,-90.471)"
       fill="#0a17f7"
       id="path897" />
    <path
       inkscape:connector-curvature="0"
       d="m 389.379,148.645 a 2.347,2.347 0 0 0 -1.335,-0.345 1.928,1.928 0 0 0 -0.861,0.172 2.522,2.522 0 0 0 -0.732,0.431 2.458,2.458 0 0 0 -0.56,0.6 c 0,0.043 -0.043,0.043 -0.043,0.086 v -0.56 a 0.474,0.474 0 1 0 -0.948,0 v 5.384 a 0.474,0.474 0 1 0 0.948,0 v -3.443 a 1.64,1.64 0 0 1 0.948,-1.464 1.806,1.806 0 0 1 0.948,-0.215 1.75,1.75 0 0 1 0.9,0.215 1.3,1.3 0 0 1 0.474,0.6 2.777,2.777 0 0 1 0.129,0.861 v 3.446 a 0.474,0.474 0 1 0 0.948,0 v -3.489 a 4.337,4.337 0 0 0 -0.215,-1.335 1.205,1.205 0 0 0 -0.6,-0.948"
       transform="translate(-237.902,-90.414)"
       fill="#0a17f7"
       id="path899" />
    <path
       inkscape:connector-curvature="0"
       d="m 407.039,152.865 a 2.127,2.127 0 0 1 -0.775,0.861 1.989,1.989 0 0 1 -1.12,0.3 2.587,2.587 0 0 1 -1.163,-0.3 2.127,2.127 0 0 1 -0.775,-0.861 2.966,2.966 0 0 1 -0.3,-1.249 2.44,2.44 0 0 1 0.3,-1.249 1.885,1.885 0 0 1 0.775,-0.861 2.133,2.133 0 0 1 1.163,-0.3 2.044,2.044 0 0 1 1.9,1.163 2.966,2.966 0 0 1 0.3,1.249 2.337,2.337 0 0 1 -0.3,1.249 m 0.732,-4.479 a 0.445,0.445 0 0 0 -0.474,0.474 v 0.6 a 5.165,5.165 0 0 0 -0.474,-0.517 2.927,2.927 0 0 0 -0.818,-0.474 2.527,2.527 0 0 0 -0.991,-0.172 2.812,2.812 0 0 0 -1.551,0.431 2.922,2.922 0 0 0 -1.077,1.206 4.022,4.022 0 0 0 0,3.446 3.253,3.253 0 0 0 1.077,1.206 2.812,2.812 0 0 0 1.551,0.431 2.7,2.7 0 0 0 0.818,-0.129 3.818,3.818 0 0 0 0.732,-0.345 6.623,6.623 0 0 0 0.56,-0.517 0.9,0.9 0 0 0 0.172,-0.258 v 0.732 a 1.947,1.947 0 0 1 -0.56,1.464 2.121,2.121 0 0 1 -1.594,0.56 2.909,2.909 0 0 1 -0.6,-0.086 2.132,2.132 0 0 1 -0.56,-0.172 1.458,1.458 0 0 1 -0.345,-0.129 1.141,1.141 0 0 0 -0.431,-0.129 0.325,0.325 0 0 0 -0.3,0.172 0.265,0.265 0 0 0 -0.043,0.3 1.309,1.309 0 0 0 0.215,0.3 0.915,0.915 0 0 0 0.431,0.3 3.751,3.751 0 0 0 0.818,0.215 5.887,5.887 0 0 0 0.818,0.086 3.766,3.766 0 0 0 1.594,-0.345 2.874,2.874 0 0 0 1.163,-0.991 2.956,2.956 0 0 0 0.431,-1.68 v -5.427 a 0.489,0.489 0 0 0 -0.129,-0.345 0.477,0.477 0 0 0 -0.431,-0.215"
       transform="translate(-247.637,-90.414)"
       fill="#0a17f7"
       id="path901" />
    <path
       inkscape:connector-curvature="0"
       d="m 425.164,151.789 a 4.71,4.71 0 0 0 -0.646,-0.345 5.209,5.209 0 0 0 -0.775,-0.215 8.14,8.14 0 0 1 -0.775,-0.258 1.386,1.386 0 0 1 -0.56,-0.345 0.744,0.744 0 0 1 -0.215,-0.56 0.731,0.731 0 0 1 0.172,-0.56 1.779,1.779 0 0 1 0.474,-0.3 2.52,2.52 0 0 1 0.56,-0.086 1.928,1.928 0 0 1 0.861,0.172 1.8,1.8 0 0 1 0.646,0.474 0.372,0.372 0 0 0 0.258,0.129 0.623,0.623 0 0 0 0.3,-0.086 0.424,0.424 0 0 0 0.043,-0.646 1.907,1.907 0 0 0 -0.646,-0.517 2.488,2.488 0 0 0 -0.732,-0.258 4.243,4.243 0 0 0 -0.732,-0.086 3.05,3.05 0 0 0 -1.12,0.215 1.724,1.724 0 0 0 -0.818,0.646 1.468,1.468 0 0 0 -0.3,0.948 1.64,1.64 0 0 0 0.172,0.818 2.108,2.108 0 0 0 0.517,0.56 2.891,2.891 0 0 0 0.732,0.345 c 0.258,0.086 0.517,0.172 0.818,0.258 0.258,0.086 0.517,0.129 0.732,0.215 a 1.77,1.77 0 0 1 0.56,0.345 0.836,0.836 0 0 1 0,1.12 1.034,1.034 0 0 1 -0.517,0.3 2.909,2.909 0 0 1 -0.6,0.086 2.1,2.1 0 0 1 -1.077,-0.258 2.821,2.821 0 0 1 -0.775,-0.646 0.436,0.436 0 0 0 -0.3,-0.172 0.363,0.363 0 0 0 -0.3,0.086 0.446,0.446 0 0 0 -0.215,0.3 1.013,1.013 0 0 0 0.086,0.345 2.394,2.394 0 0 0 1.163,0.9 3.854,3.854 0 0 0 1.335,0.258 3.235,3.235 0 0 0 1.12,-0.215 1.835,1.835 0 0 0 0.861,-0.646 1.51,1.51 0 0 0 0.3,-0.991 1.54,1.54 0 0 0 -0.172,-0.818 1.266,1.266 0 0 0 -0.431,-0.517"
       transform="translate(-258.397,-90.414)"
       fill="#0a17f7"
       id="path903" />
    <path
       inkscape:connector-curvature="0"
       d="m 440.164,151.789 a 4.71,4.71 0 0 0 -0.646,-0.345 5.209,5.209 0 0 0 -0.775,-0.215 8.14,8.14 0 0 1 -0.775,-0.258 1.386,1.386 0 0 1 -0.56,-0.345 0.744,0.744 0 0 1 -0.215,-0.56 0.731,0.731 0 0 1 0.172,-0.56 1.779,1.779 0 0 1 0.474,-0.3 2.52,2.52 0 0 1 0.56,-0.086 1.928,1.928 0 0 1 0.861,0.172 1.8,1.8 0 0 1 0.646,0.474 0.372,0.372 0 0 0 0.258,0.129 0.623,0.623 0 0 0 0.3,-0.086 0.424,0.424 0 0 0 0.043,-0.646 1.907,1.907 0 0 0 -0.646,-0.517 2.488,2.488 0 0 0 -0.732,-0.258 4.243,4.243 0 0 0 -0.732,-0.086 3.05,3.05 0 0 0 -1.12,0.215 1.724,1.724 0 0 0 -0.818,0.646 1.468,1.468 0 0 0 -0.3,0.948 1.64,1.64 0 0 0 0.172,0.818 2.108,2.108 0 0 0 0.517,0.56 2.891,2.891 0 0 0 0.732,0.345 c 0.258,0.086 0.517,0.172 0.818,0.258 0.258,0.086 0.517,0.129 0.732,0.215 a 1.77,1.77 0 0 1 0.56,0.345 0.836,0.836 0 0 1 0,1.12 1.034,1.034 0 0 1 -0.517,0.3 2.909,2.909 0 0 1 -0.6,0.086 2.1,2.1 0 0 1 -1.077,-0.258 2.821,2.821 0 0 1 -0.775,-0.646 0.436,0.436 0 0 0 -0.3,-0.172 0.363,0.363 0 0 0 -0.3,0.086 0.446,0.446 0 0 0 -0.215,0.3 1.013,1.013 0 0 0 0.086,0.345 2.394,2.394 0 0 0 1.163,0.9 3.676,3.676 0 0 0 1.335,0.258 3.235,3.235 0 0 0 1.12,-0.215 1.835,1.835 0 0 0 0.861,-0.646 1.51,1.51 0 0 0 0.3,-0.991 1.54,1.54 0 0 0 -0.172,-0.818 0.838,0.838 0 0 0 -0.431,-0.517"
       transform="translate(-266.936,-90.414)"
       fill="#0a17f7"
       id="path905" />
    <path
       inkscape:connector-curvature="0"
       d="m 456.039,153.482 a 0.335,0.335 0 0 0 -0.3,0.129 1.189,1.189 0 0 1 -0.345,0.258 1.29,1.29 0 0 1 -0.431,0.172 2.7,2.7 0 0 1 -0.689,0.086 2.049,2.049 0 0 1 -1.938,-1.163 2.813,2.813 0 0 1 -0.3,-1.249 2.439,2.439 0 0 1 0.3,-1.249 2.611,2.611 0 0 1 0.818,-0.861 2.2,2.2 0 0 1 1.206,-0.345 2.456,2.456 0 0 1 0.56,0.043 2.677,2.677 0 0 1 0.431,0.129 c 0.086,0.043 0.172,0.129 0.258,0.172 a 0.938,0.938 0 0 0 0.215,0.172 0.612,0.612 0 0 0 0.258,0.086 0.391,0.391 0 0 0 0.3,-0.129 0.41,0.41 0 0 0 0.086,-0.3 0.562,0.562 0 0 0 -0.3,-0.517 2.068,2.068 0 0 0 -0.818,-0.388 4.8,4.8 0 0 0 -1.163,-0.129 3,3 0 0 0 -2.8,1.637 3.7,3.7 0 0 0 -0.388,1.68 3.755,3.755 0 0 0 0.388,1.723 3.253,3.253 0 0 0 1.077,1.206 3,3 0 0 0 1.637,0.431 3.552,3.552 0 0 0 1.206,-0.172 2.4,2.4 0 0 0 0.818,-0.431 0.668,0.668 0 0 0 0.3,-0.474 0.489,0.489 0 0 0 -0.129,-0.345 c 0,-0.129 -0.129,-0.172 -0.258,-0.172"
       transform="translate(-275.533,-90.471)"
       fill="#0a17f7"
       id="path907" />
    <path
       inkscape:connector-curvature="0"
       d="m 472.25,145.329 a 2.2,2.2 0 0 0 -1.292,-0.345 1.748,1.748 0 0 0 -0.818,0.172 2.521,2.521 0 0 0 -0.732,0.431 2.267,2.267 0 0 0 -0.517,0.6 0.042,0.042 0 0 1 -0.043,0.043 v -3.359 a 0.474,0.474 0 1 0 -0.948,0 v 8.183 a 0.474,0.474 0 1 0 0.948,0 v -3.4 a 1.64,1.64 0 0 1 0.948,-1.464 1.806,1.806 0 0 1 0.948,-0.215 1.7,1.7 0 0 1 0.861,0.215 1.208,1.208 0 0 1 0.431,0.6 2.589,2.589 0 0 1 0.129,0.861 v 3.4 a 0.474,0.474 0 1 0 0.948,0 v -3.4 a 4.06,4.06 0 0 0 -0.215,-1.292 1.548,1.548 0 0 0 -0.646,-1.034"
       transform="translate(-285.154,-87.055)"
       fill="#0a17f7"
       id="path909" />
    <path
       inkscape:connector-curvature="0"
       d="m 489.768,152.865 a 3,3 0 0 1 -0.775,0.861 2.087,2.087 0 0 1 -1.12,0.3 1.989,1.989 0 0 1 -1.12,-0.3 2.61,2.61 0 0 1 -0.818,-0.861 2.738,2.738 0 0 1 0,-2.5 2.61,2.61 0 0 1 0.818,-0.861 2.087,2.087 0 0 1 1.12,-0.3 1.9,1.9 0 0 1 1.12,0.3 2.127,2.127 0 0 1 0.775,0.861 2.738,2.738 0 0 1 0,2.5 m -0.3,-4.135 a 3.325,3.325 0 0 0 -3.273,0 3.471,3.471 0 0 0 -1.163,1.206 3.661,3.661 0 0 0 0,3.446 3.471,3.471 0 0 0 1.163,1.206 3.325,3.325 0 0 0 3.273,0 3.471,3.471 0 0 0 1.163,-1.206 3.661,3.661 0 0 0 0,-3.446 2.86,2.86 0 0 0 -1.163,-1.206"
       transform="translate(-294.661,-90.414)"
       fill="#0a17f7"
       id="path911" />
    <path
       inkscape:connector-curvature="0"
       d="m 508.568,152.865 a 3,3 0 0 1 -0.775,0.861 2.087,2.087 0 0 1 -1.12,0.3 1.989,1.989 0 0 1 -1.12,-0.3 2.61,2.61 0 0 1 -0.818,-0.861 2.738,2.738 0 0 1 0,-2.5 2.61,2.61 0 0 1 0.818,-0.861 2.087,2.087 0 0 1 1.12,-0.3 1.9,1.9 0 0 1 1.12,0.3 2.127,2.127 0 0 1 0.775,0.861 2.813,2.813 0 0 1 0.3,1.249 3.548,3.548 0 0 1 -0.3,1.249 m -0.3,-4.135 a 3.325,3.325 0 0 0 -3.273,0 3.471,3.471 0 0 0 -1.163,1.206 3.661,3.661 0 0 0 0,3.446 3.471,3.471 0 0 0 1.163,1.206 3.325,3.325 0 0 0 3.273,0 3.471,3.471 0 0 0 1.163,-1.206 3.661,3.661 0 0 0 0,-3.446 3.138,3.138 0 0 0 -1.163,-1.206"
       transform="translate(-305.364,-90.414)"
       fill="#0a17f7"
       id="path913" />
    <path
       inkscape:connector-curvature="0"
       d="m 523.674,142.2 a 0.445,0.445 0 0 0 -0.474,0.474 v 8.183 a 0.474,0.474 0 1 0 0.948,0 v -8.183 a 0.445,0.445 0 0 0 -0.474,-0.474"
       transform="translate(-316.636,-86.941)"
       fill="#0a17f7"
       id="path915" />
    <path
       inkscape:connector-curvature="0"
       d="m 401.748,125.587 v -5.513 a 0.474,0.474 0 1 0 -0.948,0 v 5.513 a 0.488,0.488 0 0 0 0.818,0.345 0.424,0.424 0 0 0 0.129,-0.345"
       transform="translate(-246.954,-74.075)"
       fill="#0a17f7"
       id="path917" />
    <path
       inkscape:connector-curvature="0"
       d="m 401,116.106 a 0.6,0.6 0 1 0 -0.6,-0.6 0.616,0.616 0 0 0 0.6,0.6"
       transform="translate(-246.726,-71.399)"
       fill="#0a17f7"
       id="path919" />
    <path
       inkscape:connector-curvature="0"
       d="m 351.374,148.4 a 0.445,0.445 0 0 0 -0.474,0.474 v 5.513 a 0.474,0.474 0 1 0 0.948,0 v -5.513 a 0.445,0.445 0 0 0 -0.474,-0.474"
       transform="translate(-218.546,-90.471)"
       fill="#0a17f7"
       id="path921" />
    <path
       inkscape:connector-curvature="0"
       d="m 351.2,143.7 a 0.6,0.6 0 1 0 0.6,0.6 0.616,0.616 0 0 0 -0.6,-0.6"
       transform="translate(-218.375,-87.795)"
       fill="#0a17f7"
       id="path923" />
    <path
       inkscape:connector-curvature="0"
       d="m 377.5,143.7 a 0.6,0.6 0 1 0 0.6,0.6 0.589,0.589 0 0 0 -0.6,-0.6"
       transform="translate(-233.347,-87.795)"
       fill="#0a17f7"
       id="path925" />
  </g>
</svg>
