<svg width="649px" height="142px" viewBox="0 0 649 142" version="1.1" xmlns="http://www.w3.org/2000/svg" xmlns:xlink="http://www.w3.org/1999/xlink">
    <title>Group</title>
    <defs>
        <linearGradient x1="45.1841452%" y1="0%" x2="59.3224935%" y2="100%" id="linearGradient-1">
            <stop stop-color="#0078A3" offset="0%"></stop>
            <stop stop-color="#282E4F" offset="100%"></stop>
        </linearGradient>
        <linearGradient x1="72.2988631%" y1="0%" x2="36.7810697%" y2="95.3925225%" id="linearGradient-2">
            <stop stop-color="#D3DF40" offset="0%"></stop>
            <stop stop-color="#91C84B" offset="100%"></stop>
        </linearGradient>
        <linearGradient x1="77.2218524%" y1="87.4079454%" x2="11.6817179%" y2="0%" id="linearGradient-3">
            <stop stop-color="#2F91BF" offset="0%"></stop>
            <stop stop-color="#1CB3E8" offset="100%"></stop>
        </linearGradient>
    </defs>
    <g id="Symbols" stroke="none" stroke-width="1" fill="none" fill-rule="evenodd">
        <g id="SWV-Logo-SVG">
            <path d="M70.7274107,0.883696429 L74.3076808,3.78462291 C82.6530929,10.5694911 90.9383214,17.4664754 99.1565714,24.4721786 L99.1565714,24.4721786 L96.9332254,25.1945402 L96.9332254,25.1945402 L94.7089286,25.915 L93.8924413,26.1873534 C90.0975913,27.4913183 86.5184024,29.253775 83.1435357,31.337625 L83.1435357,31.337625 L80.0473816,28.7081362 C77.9815258,26.9585873 75.9121012,25.2159881 73.8387321,23.4807143 L73.8387321,23.4807143 L71.5041376,26.7377923 C69.9448611,28.9057341 68.3797619,31.0667262 66.8084643,33.2203929 L66.8084643,33.2203929 L65.3367991,35.2332746 L65.3367991,35.2332746 L63.8632321,37.2433036 L61.2384113,40.7967506 C58.6076473,44.3444129 55.9594107,47.8746027 53.2969107,51.38625 L53.2969107,51.38625 L52.8230491,52.0082924 L52.8230491,52.0082924 L52.3510893,52.6312857 L51.8721334,53.2686324 C51.2448586,54.1241621 50.66205,55.001925 50.1133214,55.8934821 L50.1133214,55.8934821 L49.8310473,56.3613676 C40.6335912,71.8528763 43.0748759,92.377707 56.3232857,104.840375 L56.3232857,104.840375 L56.8253978,105.298722 C57.8370813,106.200113 58.8921454,107.012214 59.9658393,107.780536 L59.9658393,107.780536 L60.3577441,108.711512 C61.5565309,111.490374 62.9615321,114.143023 64.5339286,116.679625 L64.5339286,116.679625 L65.0354929,117.473922 C65.71263,118.526183 66.4230357,119.551829 67.1634643,120.558 L67.1634643,120.558 L67.6799987,121.249339 C70.1118802,124.458177 72.8438024,127.421164 75.9015357,130.051714 L75.9015357,130.051714 L75.2041543,129.992552 C68.931808,129.413013 62.7736901,127.562775 57.0446964,124.478214 L57.0446964,124.478214 L56.3119654,124.076719 C54.3640082,122.991127 52.4649147,121.783877 50.6369464,120.403321 L50.6369464,120.403321 L49.9947602,119.911677 C48.7150302,118.918557 47.4640434,117.86489 46.2577679,116.722732 L46.2577679,116.722732 L45.7540382,116.236573 C29.2557442,100.105069 25.1128014,75.2802857 33.8086786,54.5698393 L33.8086786,54.5698393 L34.2074856,53.6493851 C34.7506964,52.4261971 35.3399964,51.2194 35.9779821,50.0296429 L35.9779821,50.0296429 L36.3897606,49.2715822 C37.6398386,47.0032805 39.0257839,44.7897161 40.6335536,42.679875 L40.6335536,42.679875 L42.5459987,40.1350509 C43.8188333,38.4359345 45.0875357,36.7319345 46.3528571,35.0245536 L46.3528571,35.0245536 L48.0231004,32.7655491 L48.0231004,32.7655491 L49.6885893,30.5008393 C56.8329643,20.7636964 63.84675,10.889625 70.7274107,0.883696429 L70.7274107,0.883696429 Z M120.115518,45.2701071 L120.501773,45.8638855 C133.112661,65.539681 132.302782,93.1886918 116.925589,112.008839 L116.925589,112.008839 L116.372611,112.677092 C115.2574,113.998495 114.087763,115.231008 112.883661,116.405768 L112.883661,116.405768 L112.325375,116.467461 C107.674053,116.934922 103.052891,116.23685 98.7470536,114.422839 L98.7470536,114.422839 L99.1487709,113.575714 C100.467819,110.740563 101.585209,107.791485 102.454268,104.731339 L102.454268,104.731339 L102.9465,104.257257 C103.926224,103.300575 104.875875,102.290533 105.765911,101.186411 L105.765911,101.186411 L106.1227,100.738143 C117.76925,85.8712411 116.7968,63.7248202 104.42325,50.1475536 C109.656964,48.537375 114.886875,46.9119821 120.115518,45.2701071 L120.115518,45.2701071 Z" id="Combined-Shape" fill="url(#linearGradient-1)"></path>
            <path d="M108.755518,26.5020179 C107.008411,27.0700179 105.261304,27.6380179 103.514196,28.2034821 L103.514196,28.2034821 C101.029196,29.0060357 98.5416607,29.8060536 96.0528571,30.6035357 L96.0528571,30.6035357 C92.8654643,31.6241607 89.8213393,32.96175 86.9458393,34.5871429 L86.9458393,34.5871429 C85.5233036,35.3896964 84.1464107,36.2645179 82.812625,37.204 L82.812625,37.204 C81.7945357,37.9178036 80.8309643,38.7089464 79.866125,39.5000893 L79.866125,39.5000893 C84.2427679,42.4440536 88.2390536,46.105625 91.7358036,50.4112679 L91.7358036,50.4112679 C92.9504107,49.6087143 94.2182679,48.8999821 95.5279643,48.2597143 L95.5279643,48.2597143 C97.0925,47.4926607 98.7026786,46.8029464 100.388929,46.2805893 L100.388929,46.2805893 C100.390196,46.2793214 100.391464,46.2793214 100.394,46.2780536 L100.394,46.2780536 C105.948482,44.5575714 111.501696,42.8193393 117.048571,41.0658929 L117.048571,41.0658929 C118.635929,40.5625536 120.223286,40.0592143 121.811911,39.5546071 L121.811911,39.5546071 C125.921036,38.2461786 130.026357,36.928875 134.131679,35.6039643 L134.131679,35.6039643 C137.464875,48.0834821 140.601554,60.6352679 143.534107,73.2567857 L143.534107,73.2567857 C143.536643,73.2732679 143.540446,73.2884821 143.54425,73.3049643 L143.54425,73.3049643 C145.953179,83.4148571 144.544589,94.0090714 139.624036,102.953804 L139.624036,102.953804 C134.703482,111.912482 126.884607,118.128786 117.745893,120.514893 L117.745893,120.514893 C116.717661,120.783679 115.683089,120.984 114.651054,121.151357 L114.651054,121.151357 C112.025321,121.573554 109.403393,121.653429 106.813161,121.42775 L106.813161,121.42775 C103.246679,121.117125 99.7626071,120.190321 96.4420893,118.701857 L96.4420893,118.701857 C95.0664643,118.084411 93.7225357,117.365536 92.4128393,116.554107 L92.4128393,116.554107 C92.060375,116.336036 91.6965,116.150929 91.3516429,115.917643 L91.3516429,115.917643 C90.0470179,115.045357 88.8349464,114.0615 87.66725,113.033268 L87.66725,113.033268 C86.2282321,111.766679 84.8728929,110.411339 83.6506786,108.934286 L83.6506786,108.934286 C82.7606429,107.861679 81.9416071,106.732018 81.1758214,105.561786 L81.1758214,105.561786 C80.1463214,103.989643 79.2423393,102.324946 78.4435893,100.591786 L78.4435893,100.591786 C77.2860357,98.0877679 76.3478214,95.4455536 75.7062857,92.6626071 L75.7062857,92.6626071 C74.0669464,85.5385179 74.3471429,78.2369286 76.4162857,71.4031786 L76.4162857,71.4031786 C75.6365536,70.0427679 74.7858214,68.719125 73.8070357,67.476625 L73.8070357,67.476625 C71.23075,64.2093571 68.1321071,61.5912321 64.689875,59.6831071 L64.689875,59.6831071 C59.5664643,71.2345536 58.2846607,84.0893571 61.1386071,96.5929643 L61.1386071,96.5929643 C61.7674643,99.3480179 62.6346786,101.992768 63.624875,104.569054 L63.624875,104.569054 C64.5605536,106.998268 65.6192143,109.353946 66.8566429,111.59425 L66.8566429,111.59425 C67.3308214,112.451321 67.8481071,113.276696 68.364125,114.102071 L68.364125,114.102071 C69.1920357,115.426982 70.0744643,116.703714 71.0076071,117.943679 L71.0076071,117.943679 C74.1455536,122.112393 77.8654464,125.799321 82.1216429,128.872607 L82.1216429,128.872607 C82.4956607,129.141393 82.83925,129.446946 83.220875,129.705589 L83.220875,129.705589 C83.3768214,129.812089 83.5378393,129.895768 83.6950536,129.999732 L83.6950536,129.999732 C84.4887321,130.530964 85.2938214,131.036839 86.1090536,131.513554 L86.1090536,131.513554 C87.5620179,132.365554 89.0441429,133.132607 90.5528929,133.821054 L90.5528929,133.821054 C97.3346607,136.910821 104.641321,138.357446 112.060821,137.953 L112.060821,137.953 C114.976893,137.794518 117.911982,137.354571 120.835661,136.616679 L120.835661,136.616679 C147.918357,129.992125 165.307018,99.1527679 158.034589,68.9663571 L158.034589,68.9663571 C153.773321,50.7611964 149.091125,32.6955 144.001946,14.7844821 L144.001946,14.7844821 C132.271732,18.7680893 120.5225,22.6743571 108.755518,26.5020179" id="Clip-2" fill="url(#linearGradient-2)"></path>
            <path d="M3.976,32.2390714 L16.2810701,33.0255185 C24.4840119,33.5559524 32.6862024,34.0985952 40.8883929,34.6530714 L40.8883929,34.6530714 L38.9996027,37.1900536 L38.9996027,37.1900536 L37.1051071,39.7194286 L36.5591074,40.449641 C34.4017881,43.3829581 32.5637404,46.4645261 31.0130536,49.6454821 L31.0130536,49.6454821 L24.5913571,49.1556138 L24.5913571,49.1556138 L18.1696607,48.6705 L17.9298444,52.6808226 C17.2706561,63.372994 16.4539683,74.0489147 15.478,84.7068036 L15.478,84.7068036 L15.4255244,85.2983545 C13.8445847,104.800899 27.1573098,122.414067 46.0916786,124.916893 L46.0916786,124.916893 L46.7191056,124.989262 C47.555445,125.076085 48.3908107,125.125582 49.2245536,125.153982 L49.2245536,125.153982 L49.8095799,125.56801 C57.0516574,130.622909 65.2790949,133.771807 73.9921429,134.717429 L73.9921429,134.717429 L73.3706814,135.067124 C66.9300857,138.630288 59.9102913,140.631546 52.7251071,140.971768 L52.7251071,140.971768 L51.8487161,141.005464 C49.2172,141.082109 46.56535,140.938677 43.9135,140.572393 L43.9135,140.572393 L43.0984836,140.44795 C16.2878926,136.128928 -2.0705375,110.844034 0.552785714,83.26525 C2.09830357,66.3013214 3.24064286,49.2866786 3.976,32.2390714 L3.976,32.2390714 Z M68.4630179,38.8053036 L69.1713037,39.0985133 C70.1109786,39.5013064 71.0329643,39.9484036 71.9508929,40.4028036 L71.9508929,40.4028036 L72.8214441,40.8455494 C73.9764721,41.4480757 75.1086179,42.09945 76.2172321,42.8003214 L76.2172321,42.8003214 L76.8682414,43.2183011 C80.9732876,45.9002004 84.7337455,49.2407821 88.0159107,53.2106964 L88.0159107,53.2106964 L88.2138373,53.4360463 C88.3482302,53.5833056 88.4854405,53.7275595 88.6130714,53.8864643 L88.6130714,53.8864643 L89.0841666,54.4948937 C89.7012986,55.3134629 90.2780214,56.1589714 90.8571786,57.0028571 L90.8571786,57.0028571 L91.2191162,57.5373058 C98.1520421,67.9099422 101.33778,80.5886317 100.042804,93.5209464 L100.042804,93.5209464 L99.936234,94.4849666 C99.6263829,97.0479372 99.1147321,99.5494663 98.485875,102.002911 L98.485875,102.002911 L98.2576259,102.868149 C97.6340002,105.168922 96.8889385,107.416379 95.9805893,109.584696 L95.9805893,109.584696 L95.6796119,110.279542 C95.3712254,110.96983 95.042692,111.647817 94.7127321,112.325804 L94.7127321,112.325804 L94.3932791,112.137315 C94.179246,112.014474 93.9642738,111.893887 93.7555,111.755268 L93.7555,111.755268 L93.4801402,111.558703 C93.2996349,111.423089 93.1232619,111.281089 92.939,111.149232 L92.939,111.149232 L92.3893319,110.748569 C91.1167921,109.801718 89.9154777,108.770415 88.8083214,107.641071 L88.8083214,107.641071 L88.3534241,107.168266 C86.4030412,105.099193 84.7245536,102.768062 83.3565357,100.221571 L83.3565357,100.221571 L83.5874838,99.4916725 C84.3362435,97.0496234 84.8722013,94.5173669 85.1315357,91.9044286 L85.1315357,91.9044286 L85.1908171,91.2551297 C85.7838142,84.1166709 84.4290683,77.1116308 81.3723393,70.937875 L81.3723393,70.937875 L81.0054554,70.2187967 C80.2543222,68.789918 79.4004592,67.4161301 78.4702143,66.0870536 L78.4702143,66.0870536 L78.1671172,65.6520201 C77.8659219,65.2162734 77.5668661,64.7805268 77.2378571,64.3640357 L77.2378571,64.3640357 L76.83029,63.8578053 C73.9515819,60.3468435 70.5353304,57.5224481 66.7678929,55.4408571 L66.7678929,55.4408571 L66.089243,55.0774635 C64.9513705,54.4871468 63.7801875,53.972256 62.5852321,53.5137143 L62.5852321,53.5137143 L61.9066468,53.2637703 C60.7710342,52.8605213 59.6125298,52.5233065 58.4355357,52.2433214 C61.8042321,47.791875 65.1475714,43.3138036 68.4630179,38.8053036 L68.4630179,38.8053036 Z" id="Combined-Shape" fill="url(#linearGradient-3)"></path>
            <path d="M200.3975,102.656 L200.3975,113.706 C200.309054,114.829513 200.650577,115.944691 201.353,116.826 C202.155286,117.569831 203.233114,117.942471 204.3235,117.853 C206.113167,117.853 207.413167,117.363333 208.2235,116.384 C209.033833,115.404667 209.4455,113.812167 209.4585,111.6065 L209.4585,102.656 L212.0585,102.656 L212.0585,119.725 L209.92,119.725 L209.5495,117.437 L209.4065,117.437 C208.876801,118.284644 208.114027,118.961662 207.2095,119.387 C206.189278,119.846706 205.078053,120.068951 203.9595,120.037 C201.8795,120.037 200.323833,119.543 199.2925,118.555 C198.261167,117.567 197.7455,115.989667 197.7455,113.823 L197.7455,102.656 L200.3975,102.656 Z M275.375,104.4435 C276.673987,105.998166 277.342055,107.98381 277.247,110.0075 L277.247,111.6455 L265.4625,111.6455 C265.5145,113.6475 266.019333,115.164167 266.977,116.1955 C268.044945,117.273157 269.524994,117.839127 271.0395,117.749 C272.914531,117.740082 274.768018,117.348594 276.4865,116.5985 L276.4865,118.906 C275.650722,119.275085 274.779573,119.558209 273.8865,119.751 C272.914083,119.936708 271.925408,120.023815 270.9355,120.011 L270.968,120.024 C268.739668,120.136953 266.568226,119.298147 264.9945,117.7165 C263.5385,116.1825 262.808333,114.0505 262.803979,111.3205 C262.799667,108.5905 263.477833,106.404333 264.8385,104.762 C266.180752,103.145786 268.199276,102.247062 270.2985,102.331 C272.221631,102.239443 274.084554,103.014667 275.375,104.4435 Z M377.1845,104.4435 C378.481714,105.998804 379.147504,107.984575 379.05,110.0075 L379.05,111.6455 L367.298,111.6455 C367.35,113.6475 367.854833,115.164167 368.8125,116.1955 C369.878442,117.272126 371.356077,117.838079 372.8685,117.749 C374.745684,117.740601 376.601397,117.34911 378.322,116.5985 L378.322,118.906 C377.48658,119.27602 376.615333,119.559175 375.722,119.751 C374.749583,119.936708 373.760908,120.023815 372.771,120.011 L372.7775,120.024 C370.549168,120.136953 368.377726,119.298147 366.804,117.7165 C365.348,116.1825 364.62,114.0505 364.62,111.3205 C364.62,108.5905 365.296,106.404333 366.648,104.762 C367.992104,103.148234 370.009355,102.250077 372.108,102.331 C374.031131,102.239443 375.894054,103.014667 377.1845,104.4435 Z M408.274,102.3375 C410.127893,102.34252 411.961333,102.725131 413.6625,103.462 L412.7395,105.5615 C411.271245,104.910794 409.690738,104.550986 408.0855,104.502 C407.125211,104.442667 406.166622,104.642466 405.31,105.0805 C404.731231,105.397133 404.373918,106.006813 404.3805,106.6665 C404.369177,107.084026 404.492215,107.494156 404.7315,107.8365 C405.036024,108.21935 405.41959,108.531967 405.856,108.753 C406.823346,109.239724 407.822256,109.661003 408.846,110.014 C410.874,110.755 412.241167,111.498167 412.9475,112.2435 C413.669093,113.001799 414.055566,114.018341 414.02,115.0645 C414.087889,116.503538 413.420208,117.885368 412.2455,118.7305 C411.0625,119.5885 409.3985,120.0305 407.26,120.0305 C404.998,120.0305 403.23,119.673 401.969,118.9515 L401.969,116.553 C402.808579,116.979233 403.693944,117.308519 404.608,117.5345 C405.492609,117.769277 406.403292,117.891575 407.3185,117.8985 C408.39762,117.960723 409.474005,117.736476 410.4385,117.2485 C411.072855,116.87332 411.480028,116.208134 411.525596,115.472546 C411.571163,114.736957 411.249201,114.026604 410.666,113.576 C409.624886,112.862962 408.489461,112.298531 407.2925,111.899 C406.113498,111.501095 404.978664,110.982687 403.906,110.352 C403.295704,109.974281 402.783421,109.457543 402.411,108.844 C402.068565,108.231163 401.897896,107.537259 401.917,106.8355 C401.880062,105.518973 402.523563,104.276181 403.62,103.5465 C405.007255,102.667934 406.634537,102.245204 408.274,102.3375 Z M421.027,98.691 L421.027,102.656 L425.98,102.656 L425.98,104.6645 L421.027,104.6645 L421.027,114.707 C420.966163,115.559905 421.228356,116.404491 421.7615,117.073 C422.272067,117.637908 423.009523,117.943391 423.77,117.905 L423.7375,117.892 C424.172828,117.889967 424.607386,117.855202 425.0375,117.788 C425.396892,117.754135 425.75323,117.693296 426.1035,117.606 L426.1035,119.556 C425.707433,119.724675 425.289432,119.836287 424.862,119.8875 C424.376928,119.973377 423.88559,120.019032 423.393,120.024 C420.091,120.024 418.44,118.290667 418.44,114.824 L418.44,104.6515 L415.996,104.6515 L415.996,103.41 L418.44,102.331 L419.532,98.691 L421.027,98.691 Z M472.039,104.4435 C473.337987,105.998166 474.006055,107.98381 473.911,110.0075 L473.911,111.6455 L462.1525,111.6455 C462.2045,113.6475 462.7115,115.164167 463.6735,116.1955 C464.736492,117.272546 466.212396,117.838743 467.723,117.749 C469.600262,117.741333 471.456121,117.34981 473.1765,116.5985 L473.1765,118.906 C472.341429,119.276931 471.470087,119.560117 470.5765,119.751 C469.604132,119.93706 468.615421,120.024 467.6255,120.011 L467.632,120.024 C465.11,120.024 463.121,119.254833 461.665,117.7165 C460.209,116.178167 459.478833,114.046167 459.4745,111.3205 C459.4745,108.5645 460.152667,106.378333 461.509,104.762 C462.849842,103.147641 464.865524,102.249113 466.9625,102.331 C468.885794,102.238512 470.7491,103.013895 472.039,104.4435 Z M454.151,104.4435 C455.445405,106.000371 456.110818,107.985017 456.0165,110.0075 L456.0165,111.6455 L444.258,111.6455 C444.31,113.6475 444.817,115.164167 445.779,116.1955 C446.844942,117.272126 448.322577,117.838079 449.835,117.749 C451.712184,117.740601 453.567897,117.34911 455.2885,116.5985 L455.2885,118.906 C454.452722,119.275085 453.581573,119.558209 452.6885,119.751 C451.71604,119.936401 450.727396,120.023507 449.7375,120.011 L449.744,120.024 C447.222,120.024 445.230833,119.254833 443.7705,117.7165 C442.310167,116.178167 441.58,114.046167 441.58,111.3205 C441.58,108.5645 442.258167,106.378333 443.6145,104.762 C444.955342,103.147641 446.971024,102.249113 449.068,102.331 C450.993039,102.239324 452.857996,103.014402 454.151,104.4435 Z M342.7085,104.7035 C344.121167,106.2895 344.825333,108.438833 344.82102,111.1515 L344.82102,111.158 C344.82102,113.94 344.119,116.106667 342.715,117.658 C341.311,119.209333 339.376167,119.9915 336.9105,120.0045 C335.480121,120.031018 334.070792,119.657298 332.8415,118.9255 C331.643711,118.192919 330.691095,117.120378 330.105,115.8445 C329.431825,114.371105 329.100726,112.764499 329.1365,111.145 C329.1365,108.363 329.832,106.196333 331.223,104.645 C332.614,103.093667 334.546667,102.318 337.021,102.318 C339.178127,102.222901 341.264635,103.098042 342.7085,104.7035 Z M289.714,102.3505 C291.772333,102.3505 293.319333,102.846667 294.355,103.839 C295.395,104.8335 295.915,106.439 295.915,108.597 L295.915,119.7315 L293.302,119.712 L293.302,108.662 C293.387996,107.541805 293.049202,106.43028 292.353,105.5485 C291.550714,104.804669 290.472886,104.432029 289.3825,104.5215 C287.595,104.5215 286.282,105.0025 285.4825,105.971 C284.683,106.9395 284.2345,108.532 284.2345,110.755 L284.2345,119.7055 L281.6345,119.7055 L281.6345,102.656 L283.7535,102.656 L284.1695,104.996 L284.2995,104.996 C284.836175,104.144566 285.608403,103.467173 286.5225,103.046 C287.51955,102.574332 288.611103,102.336458 289.714,102.3505 Z M391.504,102.3505 C393.566667,102.3505 395.113667,102.846667 396.145,103.839 C397.185,104.8335 397.705,106.439 397.705,108.597 L397.705,119.7315 L395.1115,119.712 L395.1115,108.662 C395.197496,107.541805 394.858702,106.43028 394.1625,105.5485 C393.358639,104.80293 392.278077,104.43016 391.1855,104.5215 C389.4045,104.5215 388.0915,105.0025 387.2855,105.971 C386.4795,106.9395 386.0375,108.532 386.0375,110.755 L386.0375,119.7055 L383.4375,119.7055 L383.4375,102.656 L385.5435,102.656 L385.966,104.996 L386.0895,104.996 C386.626175,104.144566 387.398403,103.467173 388.3125,103.046 C389.30955,102.574332 390.401103,102.336458 391.504,102.3505 Z M182.1455,96.975 C185.685833,96.975 188.4375,97.9565 190.4005,99.9195 C192.288,101.807 193.268048,104.413651 193.340644,107.739452 L193.345,108.1225 C193.345,111.8795 192.3245,114.7525 190.2835,116.7415 C188.2425,118.7305 185.306667,119.725 181.476,119.725 L175.171,119.725 L175.171,96.975 L182.1455,96.975 Z M360.0635,95.48 L360.0635,119.712 L357.4765,119.712 L357.4765,95.48 L360.0635,95.48 Z M316.299,96.9425 C319.332333,96.9425 321.5185,97.3953333 322.8575,98.301 C324.1965,99.2066667 324.8725,100.632333 324.8855,102.578 C324.932253,103.794844 324.529683,104.986358 323.7545,105.9255 C322.887402,106.859043 321.722085,107.461238 320.459,107.6285 L320.459,107.7845 C323.925667,108.373833 325.659,110.1895 325.659,113.2315 C325.75297,115.054131 324.990933,116.816193 323.5985,117.996 C322.2205,119.14 320.2965,119.712 317.8265,119.712 L309.8705,119.712 L309.8705,96.9425 L316.299,96.9425 Z M437.2445,102.317895 L437.264,102.331 C437.948952,102.324779 438.632773,102.387935 439.305,102.5195 L438.9475,104.918 C438.335895,104.773118 437.710441,104.694664 437.082,104.684 C435.707498,104.681286 434.405435,105.300065 433.5395,106.3675 C432.541454,107.529194 432.015003,109.022739 432.064,110.5535 L432.064,119.712 L429.464,119.712 L429.464,102.656 L431.596,102.656 L431.8885,105.8215 L432.012,105.8215 C432.562657,104.787098 433.3486,103.896511 434.3065,103.2215 C435.17024,102.62665 436.195764,102.311278 437.2445,102.317895 Z M351.997,95.48 L351.997,119.712 L349.41,119.712 L349.41,95.48 L351.997,95.48 Z M220.1315,102.656 L220.1315,119.712 L217.5315,119.712 L217.5315,102.656 L220.1315,102.656 Z M233.7035,102.331 C235.7575,102.331 237.3045,102.827167 238.3445,103.8195 C239.3845,104.814 239.898,106.4195 239.898,108.5775 L239.898,119.712 L237.2915,119.712 L237.2915,108.662 C237.377496,107.541805 237.038702,106.43028 236.3425,105.5485 C235.538639,104.80293 234.458077,104.43016 233.3655,104.5215 C231.580167,104.5215 230.280167,105.004667 229.4655,105.971 C228.6335,106.933 228.224,108.532 228.224,110.755 L228.224,119.7055 L225.624,119.7055 L225.624,102.656 L227.73,102.656 L228.146,104.996 L228.2695,104.996 C228.811308,104.146521 229.584942,103.469873 230.499,103.046 C231.498406,102.565666 232.594702,102.321056 233.7035,102.331 Z M480.8335,95.506 L480.8335,108.3565 C480.8335,108.922 480.788,109.806 480.7035,111.002 L480.84,110.976 C481.470367,110.108225 482.149633,109.277046 482.8745,108.4865 L488.3865,102.6365 L491.4545,102.6365 L484.545,109.91 L491.942,119.7055 L488.809,119.7055 L482.7835,111.639 L480.8335,113.3225 L480.8335,119.7055 L478.2725,119.7055 L478.2725,95.506 L480.8335,95.506 Z M336.9495,104.5215 C335.479171,104.423479 334.052415,105.043597 333.121,106.1855 C332.254333,107.294833 331.821,108.952333 331.821,111.158 L331.8535,111.1645 C331.8535,113.342 332.2955,114.9995 333.1535,116.1435 C334.139027,117.227774 335.536265,117.845944 337.0015,117.845944 C338.466735,117.845944 339.863973,117.227774 340.8495,116.1435 C341.727,115.0125 342.1495,113.342 342.1495,111.158 C342.1495,108.974 341.7075,107.336 340.8495,106.2115 C339.900364,105.049208 338.446606,104.419246 336.9495,104.5215 Z M317.0465,108.935 L312.516,108.935 L312.516,117.45 L317.2675,117.45 C319.107,117.45 320.5175,117.099 321.421,116.384 C322.3245,115.669 322.812,114.564 322.812,113.043 C322.905021,111.829333 322.367265,110.653144 321.3885,109.9295 C320.4395,109.2665 318.992167,108.935 317.0465,108.935 Z M181.606,99.2369814 L177.758,99.2369814 L177.758,117.437 L181.008,117.437 C184.1605,117.437 186.5395,116.657 188.158,115.11 C189.7765,113.563 190.537,111.2555 190.537,108.22 L190.4785,108.207 C190.4785,105.238667 189.735333,103.0005 188.249,101.4925 C186.762667,99.9845 184.548333,99.2326667 181.606,99.2369814 Z M251.3965,109.9815 L251.3965,112.3475 L243.7525,112.3475 L243.7525,109.9815 L251.3965,109.9815 Z M270.266,104.4955 L270.24,104.4955 C269.013453,104.447743 267.826932,104.936589 266.99,105.8345 C266.114942,106.877382 265.607807,108.179488 265.547,109.5395 L274.4715,109.5395 C274.560135,108.201804 274.173382,106.875795 273.3795,105.7955 C272.597685,104.9052 271.448779,104.42549 270.266,104.4955 Z M466.9365,104.4955 L466.904,104.4955 C465.678072,104.451211 464.492936,104.939487 463.654,105.8345 C462.781459,106.878871 462.274667,108.180094 462.211,109.5395 L471.1355,109.5395 C471.226004,108.202595 470.841576,106.876663 470.05,105.7955 C469.267599,104.906016 468.119111,104.42648 466.9365,104.4955 Z M372.0755,104.4955 L372.0495,104.4955 C370.823263,104.449483 369.637438,104.938043 368.7995,105.8345 C367.926959,106.878871 367.420167,108.180094 367.3565,109.5395 L376.281,109.5395 C376.369635,108.201804 375.982882,106.875795 375.189,105.7955 C374.407185,104.9052 373.258279,104.42549 372.0755,104.4955 Z M449.042,104.4955 L449.0095,104.4955 C447.783572,104.451211 446.598436,104.939487 445.7595,105.8345 C444.886789,106.878237 444.38197,108.180259 444.323,109.5395 L453.2475,109.5395 C453.336135,108.201804 452.949382,106.875795 452.1555,105.7955 C451.373099,104.906016 450.224611,104.42648 449.042,104.4955 Z M316.442,99.211 L312.542,99.211 L312.516,106.6925 L316.9035,106.6925 C318.7755,106.6925 320.121,106.4 320.94,105.815 C321.759,105.23 322.1685,104.2355 322.1685,102.8445 C322.268041,101.733378 321.742095,100.658944 320.8035,100.056 C319.887,99.4905 318.4375,99.211 316.442,99.211 Z M218.8575,96.3055 C219.256205,96.302232 219.640648,96.453679 219.93,96.728 C220.257019,97.0781663 220.420037,97.5506822 220.3785,98.028 C220.415965,98.504807 220.253498,98.9757254 219.93,99.328 C219.642822,99.606469 219.257504,99.7605964 218.8575,99.757 C218.450118,99.7695344 218.055415,99.6144727 217.7655,99.328 C217.449413,98.9720217 217.29214,98.5025504 217.33,98.028 L217.33,98.0215 C217.285807,97.5461953 217.443904,97.0742653 217.7655,96.7215 C218.058796,96.4417047 218.452384,96.2917666 218.8575,96.3055 Z M399.4795,63.695 C400.062551,63.7018268 400.644502,63.7474274 401.2215,63.8315 C401.8715,63.916 402.32,63.981 402.5215,64.0265 L408.6575,64.033 L408.6575,66.4445 L405.934,67.1465 C406.430876,67.9219569 406.690661,68.8255573 406.6815,69.7465 C406.768617,71.4307828 406.043582,73.0548595 404.7315,74.1145 C403.4315,75.1631667 401.6245,75.6853333 399.3105,75.681 L398.4525,75.6355 L397.7505,75.5575 C397.319025,75.8300729 397.047382,76.2957478 397.0225,76.8055 C397.0225,77.4555 397.8935,77.8325 399.6225,77.8325 L402.58,77.8325 C404.491,77.8325 405.947,78.242 406.948,79.061 C407.98852,79.9633051 408.54658,81.300725 408.456,82.675 C408.516777,84.5951481 407.544514,86.4007779 405.908,87.407 C404.205,88.5315 401.774,89.0905 398.5955,89.0905 C396.1645,89.0905 394.312,88.668 393.025,87.823 C391.782611,87.0718945 391.038321,85.712325 391.075,84.261 C391.048423,83.2882319 391.402961,82.3435748 392.063,81.6285 C392.851099,80.8500997 393.853831,80.3249672 394.9425,80.1205 C394.425801,79.9025435 393.976914,79.5501667 393.6425,79.1 C392.891387,78.1809436 392.891387,76.8600564 393.6425,75.941 C394.12608,75.4236522 394.687516,74.9850301 395.3065,74.641 C394.400137,74.2541413 393.639967,73.589562 393.1355,72.743 C392.586145,71.8109643 392.309159,70.7435551 392.336,69.662 C392.240454,67.985858 392.924106,66.3594861 394.1885,65.255 C395.4235,64.215 397.187167,63.695 399.4795,63.695 Z M619.173,58.677 C620.725741,60.547004 621.908139,62.6956146 622.657,65.008 C623.470891,67.4915423 623.876987,70.0905549 623.8595,72.704 L623.853,72.704 C623.874774,75.2970227 623.466228,77.8756949 622.644,80.335 C621.896789,82.5917744 620.715453,84.680642 619.1665,86.484 L615.3055,86.484 C616.727056,84.5319865 617.824481,82.3634756 618.5555,80.062 C619.326539,77.6766982 619.716992,75.18482 619.7125,72.678 C619.715302,70.1674192 619.336131,67.6710233 618.588,65.2745 C617.855566,62.9070971 616.73535,60.6776476 615.273,58.677 L619.173,58.677 Z M595.812,58.677 C594.34965,60.6776476 593.229434,62.9070971 592.497,65.2745 C591.748869,67.6710233 591.369698,70.1674192 591.3725,72.678 C591.367423,75.1796004 591.753415,77.6666204 592.5165,80.049 C593.245278,82.3554095 594.342823,84.5285496 595.7665,86.484 L591.9055,86.484 C590.349063,84.6715126 589.163185,82.571382 588.415,80.3025 C587.601309,77.852642 587.197221,75.2853606 587.219,72.704 L587.2255,72.704 C587.20544,70.0813474 587.613814,67.4730208 588.4345,64.982 C589.183822,62.6790303 590.363918,60.5394165 591.912,58.677 L595.812,58.677 Z M400.7535,81.661 L398.29,81.661 C397.514195,81.633055 396.748835,81.8465382 396.0995,82.272 C395.544393,82.6273533 395.212481,83.2444633 395.222,83.9035 C395.218698,84.5541585 395.58368,85.1507154 396.1645,85.444 C396.979679,85.8592299 397.889976,86.0520514 398.8035,86.003 C400.173491,86.0653627 401.540436,85.8257036 402.8075,85.301 C403.635702,85.0213335 404.208228,84.2631236 404.2505,83.39 C404.292628,82.8000956 403.948279,82.250714 403.399,82.0315 C402.548674,81.741216 401.650856,81.6154774 400.7535,81.661 Z M199.169,63.656 C201.5025,63.656 203.2965,64.1695 204.5445,65.1835 C205.7925,66.1975 206.41,67.7835 206.41,69.8245 L206.41,81.427 L203.095,81.4725 L202.1785,79.1065 L202.055,79.1065 C201.40581,79.9869204 200.560028,80.7036095 199.585,81.1995 C198.536329,81.6276021 197.408389,81.8270414 196.2765,81.7845 C194.81947,81.8654095 193.39239,81.3490321 192.3245,80.3545 C191.309897,79.246149 190.791126,77.7719919 190.888,76.2725 C190.774547,74.6617206 191.514833,73.1095871 192.838,72.184 C194.138,71.3065 196.088,70.8255 198.688,70.728 L201.704,70.637 L201.704,69.87 C201.704,68.1063333 200.8005,67.2245 198.9935,67.2245 C197.290304,67.3020274 195.62161,67.7313731 194.0925,68.4855 L192.5195,65.281 C194.568851,64.2013043 196.852663,63.643188 199.169,63.656 Z M506.151,63.7015 C508.4845,63.7015 510.2785,64.215 511.52,65.229 C512.7615,66.243 513.392,67.829 513.392,69.87 L513.392,81.4725 L510.0575,81.4725 L509.1345,79.1065 L509.011,79.1065 C508.362607,79.9851642 507.519374,80.7015791 506.5475,81.1995 C505.496539,81.6275515 504.366495,81.826971 503.2325,81.7845 C501.777456,81.8651345 500.352492,81.3486732 499.287,80.3545 C498.269742,79.2477418 497.750558,77.772413 497.8505,76.2725 C497.737047,74.6617206 498.477333,73.1095871 499.8005,72.184 C501.1005,71.3065 503.0505,70.8255 505.6505,70.728 L508.673,70.637 L508.673,69.87 C508.673,68.1063333 507.7695,67.2245 505.9625,67.2245 C504.25729,67.3024424 502.586557,67.7317434 501.055,68.4855 L499.4885,65.281 C501.545797,64.2150135 503.834114,63.6725149 506.151,63.7015 Z M452.708,63.708 C455.165,63.708 457.080333,64.4078333 458.454,65.8075 C459.819,67.2115 460.508,69.142 460.508,71.6185 L460.508,73.9195 L449.2825,73.9195 C449.261056,75.0869547 449.68926,76.2179709 450.4785,77.0785 C451.324754,77.8763871 452.463656,78.2881803 453.6245,78.216 C454.623773,78.2203856 455.620316,78.1113546 456.595,77.891 C457.606825,77.6481603 458.589632,77.2973136 459.5265,76.8445 L459.5265,80.556 C458.681238,80.9762345 457.785611,81.2864271 456.8615,81.479 C455.722473,81.6999525 454.563623,81.8023321 453.4035,81.7845 L453.4035,81.752 C450.604167,81.752 448.413667,80.9785 446.832,79.4315 C445.250333,77.8845 444.461667,75.694 444.465982,72.86 C444.465982,69.9393333 445.196167,67.6838333 446.6565,66.0935 C448.116833,64.5031667 450.134,63.708 452.708,63.708 Z M316.858,63.708 C319.315,63.708 321.230333,64.4078333 322.604,65.8075 C323.9755,67.2115 324.658,69.142 324.658,71.6185 L324.658,73.9195 L313.4715,73.9195 C313.450056,75.0869547 313.87826,76.2179709 314.6675,77.0785 C315.513754,77.8763871 316.652656,78.2881803 317.8135,78.216 C318.814899,78.2199852 319.81355,78.1109622 320.7905,77.891 C321.799903,77.6470494 322.780438,77.2962356 323.7155,76.8445 L323.7155,80.556 C322.870238,80.9762345 321.974611,81.2864271 321.0505,81.479 C319.911473,81.6999525 318.752623,81.8023321 317.5925,81.7845 L317.5535,81.752 C314.754167,81.752 312.563667,80.9785 310.982,79.4315 C309.400333,77.8845 308.611667,75.694 308.615982,72.86 C308.615982,69.9393333 309.346167,67.6838333 310.8065,66.0935 C312.266833,64.5031667 314.284,63.708 316.858,63.708 Z M249.778,63.708 C252.235,63.708 254.150333,64.4078333 255.524,65.8075 C256.8955,67.2115 257.578,69.142 257.578,71.6185 L257.578,73.9195 L246.372,73.9195 C246.350556,75.0869547 246.77876,76.2179709 247.568,77.0785 C248.414254,77.8763871 249.553156,78.2881803 250.714,78.216 C251.715399,78.2199852 252.71405,78.1109622 253.691,77.891 C254.700403,77.6470494 255.680938,77.2962356 256.616,76.8445 L256.616,80.556 C255.770738,80.9762345 254.875111,81.2864271 253.951,81.479 C252.811973,81.6999525 251.653123,81.8023321 250.493,81.7845 L250.4735,81.752 C247.669833,81.752 245.479333,80.9785 243.902,79.4315 C242.324667,77.8845 241.536,75.694 241.536,72.86 C241.536,69.9393333 242.266167,67.6838333 243.7265,66.0935 C245.186833,64.5031667 247.204,63.708 249.778,63.708 Z M637.8215,58.3195 C641.327167,58.3195 644.003,59.3248333 645.849,61.3355 C647.695,63.3461667 648.622333,66.243 648.631,70.026 L648.657,70.0585 C648.657,73.8285 647.723167,76.7253333 645.8555,78.749 C643.987833,80.7726667 641.309833,81.7845 637.8215,81.7845 C634.328833,81.7845 631.648667,80.7726667 629.781,78.749 C627.913333,76.7253333 626.970833,73.8068333 626.9535,69.9935 C626.9535,66.2018333 627.8895,63.3093333 629.7615,61.316 C631.6335,59.3226667 634.320167,58.3238333 637.8215,58.3195 Z M554.472,57.195 L554.472,81.427 L550.8255,81.427 L549.909,79.1715 L549.701,79.1715 C548.661524,80.8813499 546.765551,81.8805451 544.7675,81.7715 L544.7675,81.739 C542.861793,81.8099935 541.049464,80.9123891 539.951,79.3535 C538.781,77.7675 538.196,75.5683333 538.196,72.756 C538.196,69.9436667 538.789667,67.7185 539.977,66.0805 C541.113588,64.5142961 542.957327,63.6192536 544.891,63.695 C546.895551,63.6019024 548.801406,64.5696421 549.909,66.243 L550.065,66.243 C549.838693,65.0994273 549.716858,63.9376424 549.701,62.772 L549.701,57.195 L554.472,57.195 Z M181.3915,58.3454101 C182.533733,58.3413133 183.671808,58.4832995 184.778,58.768 C185.949066,59.0719715 187.094427,59.4675231 188.2035,59.951 L186.6435,63.708 C185.666943,63.2868936 184.661139,62.9371434 183.634,62.6615 C182.866618,62.4682835 182.078814,62.3678985 181.2875,62.3625 C180.531848,62.3161412 179.785269,62.5472802 179.188,63.0125 C178.704427,63.4305561 178.434682,64.0440483 178.4535,64.683 C178.444099,65.074557 178.547921,65.4605047 178.7525,65.7945 C178.998372,66.1627116 179.316886,66.4768021 179.6885,66.7175 C180.678539,67.3049464 181.700633,67.8366086 182.75,68.31 C184.882,69.3326667 186.340167,70.3531667 187.1245,71.3715 C187.9369,72.452025 188.356497,73.777307 188.314,75.1285 L188.288,75.1155 C188.374174,76.9997768 187.546506,78.8099968 186.065,79.9775 C184.583,81.1605 182.524667,81.752 179.89,81.752 C177.665864,81.7970121 175.46139,81.3276439 173.4485,80.3805 L173.4485,75.8955 C174.707507,76.4825137 176.011718,76.9672453 177.3485,77.345 C178.299256,77.6100909 179.280099,77.7520838 180.267,77.7675 C181.123336,77.8230028 181.975596,77.6093696 182.7045,77.1565 C183.276434,76.7381279 183.59511,76.056652 183.5495,75.3495 C183.554756,74.9238169 183.425054,74.5074063 183.179,74.16 C182.874054,73.7647848 182.502276,73.4260047 182.0805,73.159 C181.12943,72.5853371 180.143893,72.0708611 179.1295,71.6185 C178.009464,71.1255531 176.956681,70.4921362 175.9965,69.7335 C175.313863,69.1428363 174.74925,68.4282479 174.3325,67.6275 C173.89166,66.760266 173.66857,65.798749 173.6825,64.826 C173.594455,63.010932 174.350227,61.2570612 175.73,60.0745 C177.095,58.924 178.98,58.3454101 181.3915,58.3454101 Z M606.1665,58.3454101 C607.308733,58.3413133 608.446808,58.4832995 609.553,58.768 C610.705754,59.0765991 611.833479,59.4720635 612.9265,59.951 L611.3665,63.708 C610.38956,63.2878797 609.383828,62.9381545 608.357,62.6615 C607.589618,62.4682835 606.801814,62.3678985 606.0105,62.3625 C605.254702,62.3149265 604.507702,62.5461958 603.911,63.0125 C603.133779,63.7237462 602.95049,64.8773899 603.469,65.7945 C603.719921,66.1629584 604.042715,66.4769088 604.418,66.7175 C605.40471,67.3069122 606.424754,67.8386372 607.473,68.31 C609.596333,69.3326667 611.056667,70.3531667 611.854,71.3715 C612.659438,72.4549102 613.074139,73.7792024 613.0305,75.1285 L613.0565,75.1155 C613.14422,76.9986336 612.319071,78.8086385 610.84,79.9775 C609.358,81.1605 607.299667,81.752 604.665,81.752 C602.438767,81.7970772 600.232168,81.3277299 598.217,80.3805 L598.217,75.8955 C599.476868,76.4804527 600.780912,76.9651224 602.117,77.345 C603.070063,77.6096614 604.052999,77.7516411 605.042,77.7675 C605.896359,77.8238291 606.746801,77.6100817 607.473,77.1565 C608.049347,76.7412186 608.371133,76.0583436 608.3245,75.3495 C608.329756,74.9238169 608.200054,74.5074063 607.954,74.16 C607.649054,73.7647848 607.277276,73.4260047 606.8555,73.159 C605.903633,72.5867555 604.918185,72.0723253 603.9045,71.6185 C602.783809,71.1268176 601.730871,70.493307 600.7715,69.7335 C600.088863,69.1428363 599.52425,68.4282479 599.1075,67.6275 C598.66666,66.760266 598.44357,65.798749 598.4575,64.826 C598.369455,63.010932 599.125227,61.2570612 600.505,60.0745 C601.87,58.9261667 603.757167,58.3498333 606.1665,58.3454101 Z M483.5635,57.2145 L483.5635,62.85 C483.5635,63.565 483.4985,64.7155 483.375,66.2885 L483.5635,66.2885 C484.613001,64.5893464 486.502106,63.593771 488.497,63.6885 L488.497,63.7015 C490.411881,63.6330997 492.230598,64.5412344 493.3265,66.113 C494.4835,67.712 495.064167,69.909 495.0685,72.704 C495.0685,75.577 494.468333,77.8043333 493.268,79.386 C492.097216,80.8572862 490.328157,81.725752 488.448072,81.7521966 C486.567987,81.7786412 484.775202,80.960275 483.5635,79.5225 L483.232,79.5225 L482.439,81.4725 L478.812,81.4725 L478.812,57.2145 L483.5635,57.2145 Z M417.3675,63.734 C419.481384,63.7383727 421.568825,64.2042203 423.484,65.099 L422.054,68.5245 C421.183,68.154 420.364,67.8745 419.61,67.608 C418.859502,67.3701457 418.076787,67.2495593 417.2895,67.2505 C415.8855,67.2505 415.1835,67.6275 415.1835,68.388 C415.198303,68.8428607 415.443128,69.2590624 415.8335,69.493 C416.777473,70.0434232 417.769562,70.5068327 418.7975,70.8775 C419.85245,71.2689827 420.856359,71.7862141 421.7875,72.418 C422.379276,72.8479945 422.858655,73.4143302 423.185,74.069 C423.505386,74.7675212 423.661055,75.5302969 423.64,76.2985 L423.6725,76.2725 C423.762865,77.8562798 423.067577,79.3829978 421.8135,80.3545 C420.569833,81.2818333 418.713,81.7476667 416.243,81.752 C415.153859,81.769035 414.065581,81.6819727 412.993,81.492 C412.131368,81.3341774 411.289893,81.0812989 410.484,80.738 L410.484,76.838 C411.441582,77.284303 412.440942,77.6348411 413.4675,77.8845 C414.419528,78.1435118 415.399603,78.2853935 416.386,78.307 C418.119333,78.307 418.986,77.8086667 418.986,76.812 C418.999016,76.4745502 418.874724,76.1462303 418.6415,75.902 C418.287072,75.580753 417.888749,75.3115566 417.4585,75.1025 C416.8995,74.8078333 416.152,74.4633333 415.216,74.069 C414.174913,73.668469 413.184463,73.1470649 412.265,72.5155 C411.681222,72.086682 411.210523,71.522289 410.8935,70.871 C410.587231,70.1504608 410.440867,69.372072 410.4645,68.5895 C410.40597,67.1630773 411.086406,65.8071196 412.265,65.0015 C413.4675,64.1565 415.164,63.734 417.3675,63.734 Z M220.8855,63.734 C223.4855,63.734 225.251333,64.5855 226.183,66.2885 L226.599,66.2885 C227.081379,65.4670621 227.802316,64.811871 228.666,64.41 C229.626629,63.9580467 230.679147,63.7355269 231.7405,63.76 C233.707833,63.76 235.200667,64.267 236.219,65.281 C237.233,66.295 237.74,67.9135 237.74,70.1495 L237.74,81.4985 L232.969,81.4985 L232.969,71.274 C233.030492,70.2884599 232.804697,69.3062495 232.319,68.4465 C231.878902,67.8125257 231.1392,67.4550032 230.369,67.504 C229.344233,67.4393325 228.359523,67.9119934 227.769,68.752 C227.1905,69.584 226.9045,70.897 226.9045,72.704 L226.8915,81.44 L222.14,81.44 L222.14,71.274 C222.198153,70.2887365 221.972572,69.3074589 221.49,68.4465 C221.039965,67.803127 220.28392,67.4448705 219.501,67.504 C218.439475,67.427127 217.422111,67.942058 216.8555,68.843 C216.305167,69.7356667 216.03,71.2046667 216.03,73.25 L216.03,81.44 L211.285,81.44 L211.285,64.033 L214.912,64.033 L215.562,66.256 L215.8285,66.256 C216.302355,65.4458 217.00585,64.7943323 217.85,64.384 C218.794485,63.9253481 219.83602,63.7023213 220.8855,63.734 Z M285.0015,64.0395 L287.0035,71.7355 C287.324167,73.1221667 287.651333,75.0288333 287.985,77.4555 L288.076,77.4555 C288.180401,76.1952606 288.36275,74.9426964 288.622,73.705 L288.869,72.405 L291.0205,64.059 L296.253,64.059 L298.294,72.405 C298.333,72.6325 298.398,72.9705 298.4825,73.4125 C298.567,73.8545 298.658,74.3355 298.7425,74.8425 C298.827,75.3495 298.8985,75.837 298.97,76.318 C299.0415,76.799 299.074,77.189 299.087,77.4815 L299.178,77.4815 C299.269,76.734 299.438,75.707 299.6785,74.407 C299.919,73.107 300.088,72.223 300.192,71.7615 L302.2785,64.059 L306.9325,64.059 L301.921,81.466 L296.7535,81.44 L295.3885,75.356 L293.5815,67.6665 L293.5035,67.6665 L290.325,81.4465 L285.216,81.4465 L280.263,64.0395 L285.0015,64.0395 Z M429.854,64.033 L433.221,73.952 C433.574184,75.1123876 433.80724,76.3059848 433.9165,77.514 L434.014,77.514 C434.107204,76.3032047 434.34283,75.1076196 434.716,73.952 L438.0635,64.033 L443.0035,64.033 L436.367,81.44 L431.518,81.44 L424.888,64.033 L429.854,64.033 Z M347.7915,57.208 L347.7915,68.0175 L347.538,71.976 L347.603,71.976 L349.6765,69.324 L354.545,64.033 L359.9075,64.033 L352.9915,71.586 L360.3235,81.44 L354.844,81.44 L349.8325,74.3875 L347.7915,76.0255 L347.7915,81.44 L343.04,81.44 L343.04,57.208 L347.7915,57.208 Z M382.4495,63.7015 C384.471,63.7015 386.0115,64.254 387.058,65.346 C388.1045,66.438 388.631,68.024 388.631,70.091 L388.618,81.44 L383.8535,81.44 L383.8535,71.274 C383.925934,70.2875929 383.699418,69.3022515 383.2035,68.4465 C382.696789,67.7897971 381.891585,67.4349198 381.065,67.504 C379.9372,67.4084743 378.842657,67.9149781 378.1855,68.8365 C377.594,69.7205 377.295,71.196 377.295,73.25 L377.295,81.44 L372.55,81.44 L372.55,64.033 L376.177,64.033 L376.827,66.256 L377.0935,66.256 C377.620991,65.419996 378.382789,64.757662 379.284,64.3515 C380.279086,63.9064141 381.359541,63.6845546 382.4495,63.7015 Z M271.358,63.7015 C273.386,63.7015 274.92,64.254 275.973,65.346 C277.026,66.438 277.5395,68.024 277.5395,70.091 L277.5265,81.44 L272.7815,81.44 L272.7815,71.274 C272.853934,70.2875929 272.627418,69.3022515 272.1315,68.4465 C271.625556,67.7888185 270.81979,67.4336935 269.993,67.504 C268.8652,67.4084743 267.770657,67.9149781 267.1135,68.8365 C266.522,69.7205 266.2295,71.196 266.2295,73.25 L266.2295,81.44 L261.4585,81.44 L261.4585,64.033 L265.0855,64.033 L265.7355,66.256 L266.002,66.256 C266.529491,65.419996 267.291289,64.757662 268.1925,64.3515 C269.187586,63.9064141 270.268041,63.6845546 271.358,63.7015 Z M528.212,63.7015 C530.2335,63.7015 531.7675,64.254 532.8205,65.346 C533.8735,66.438 534.3935,68.024 534.3935,70.091 L534.361,81.44 L529.6095,81.44 L529.6095,71.274 C529.685223,70.287344 529.458486,69.3010388 528.9595,68.4465 C528.455617,67.7898799 527.652274,67.4347435 526.8275,67.504 C525.699465,67.4071381 524.604291,67.913934 523.948,68.8365 C523.35,69.7205 523.0575,71.196 523.0575,73.25 L523.0575,81.44 L518.306,81.44 L518.306,64.033 L521.9395,64.033 L522.5895,66.256 L522.8495,66.256 C523.376991,65.419996 524.138789,64.757662 525.04,64.3515 C526.037144,63.9056849 527.119876,63.6838138 528.212,63.7015 Z M367.5645,64.033 L367.5645,81.44 L362.8195,81.44 L362.8195,64.033 L367.5645,64.033 Z M570.098,58.677 L574.375,72.223 C574.6155,73.0225 574.8625,73.952 575.116,75.018 C575.3695,76.084 575.532,76.8185 575.5905,77.2345 C575.874348,75.5409827 576.26513,73.8671348 576.7605,72.223 L581.0765,58.677 L585.945,58.677 L578.21,81.427 L572.945,81.427 L565.223,58.677 L570.098,58.677 Z M338.2755,63.7015 C338.814157,63.6939195 339.352162,63.741839 339.881,63.8445 L339.5235,68.297 C339.064281,68.184131 338.592294,68.131688 338.1195,68.141 C336.83236,68.0625875 335.564251,68.4814125 334.577,69.311 C333.693451,70.1549464 333.21922,71.340522 333.277,72.561 L333.277,81.4205 L328.5255,81.4205 L328.5255,64.033 L332.1265,64.033 L332.822,66.958 L333.056,66.958 C333.576748,66.0002517 334.330022,65.1888626 335.2465,64.5985 C336.134506,64.0094451 337.177391,63.6972583 338.243,63.7015 L338.2755,63.7015 Z M474.08,63.7015 C474.618657,63.6939195 475.156662,63.741839 475.6855,63.8445 L475.328,68.297 C474.868704,68.1845668 474.396774,68.1321301 473.924,68.141 C472.63686,68.0625875 471.368751,68.4814125 470.3815,69.311 C469.509887,70.1607232 469.047811,71.3455341 469.114,72.561 L469.114,81.4205 L464.3625,81.4205 L464.3625,64.033 L467.957,64.033 L468.659,66.958 L468.893,66.958 C469.413748,66.0002517 470.167022,65.1888626 471.0835,64.5985 C471.971506,64.0094451 473.014391,63.6972583 474.08,63.7015 Z M201.691,73.406 L199.8515,73.471 C198.775273,73.4318227 197.709118,73.6904892 196.7705,74.2185 C196.091778,74.6890014 195.709404,75.4808871 195.763,76.305 C195.763,77.644 196.53,78.3135 198.064,78.3135 C199.034785,78.3601558 199.984255,78.0187208 200.703,77.3645 C201.375015,76.7019395 201.734141,75.7852248 201.691,74.8425 L201.691,73.406 Z M508.6535,73.406 L506.814,73.471 C505.737773,73.4318227 504.671618,73.6904892 503.733,74.2185 C503.04977,74.6857158 502.664194,75.4791125 502.719,76.305 C502.719,77.644 503.488167,78.3135 505.0265,78.3135 C505.997285,78.3601558 506.946755,78.0187208 507.6655,77.3645 C508.334736,76.7001102 508.693358,75.7846793 508.6535,74.8425 L508.6535,73.406 Z M546.3535,67.556 C545.349342,67.525604 544.407142,68.040209 543.89,68.9015 C543.230392,70.0909598 542.92373,71.4438812 543.006,72.8015 C542.915004,74.1461345 543.224908,75.4875452 543.8965,76.656 C544.454722,77.5042721 545.416887,77.9976897 546.4315,77.956 L546.425,77.956 C547.432667,78.0432955 548.422567,77.6507074 549.0965,76.8965 C549.662,76.188 549.974,74.992 550.026,73.2955 L550.026,72.782 C550.026,70.9165 549.7335,69.5775 549.1615,68.765 C548.48531,67.9194368 547.43245,67.466122 546.3535,67.556 Z M484.402,68.583 C483.864667,69.311 483.585167,70.5026667 483.5635,72.158 L483.5635,72.678 C483.5635,74.5435 483.8365,75.8825 484.3955,76.695 C485.004963,77.5296278 486.004415,77.9875047 487.0345,77.904 C487.996841,77.9109358 488.887418,77.395993 489.3615,76.5585 C490.008658,75.3649052 490.308161,74.0137604 490.226,72.6585 C490.315966,71.3163592 490.013323,69.9770503 489.355,68.804 C488.879309,68.0346245 488.057636,67.552837 487.16237,67.5070776 L486.9935,67.504 L486.9755,67.503 L486.804012,67.4922363 C485.882114,67.4677999 484.995013,67.8672566 484.402,68.583 Z M633.5055,64.306 C632.581816,65.5375789 632.095666,67.3233684 632.047051,69.6633684 L632.0425,70.045 L632.043,70.0585 L632.043,70.0585 L632.043,70.026 C632.043,72.574 632.524,74.485 633.4925,75.772 C634.521708,77.1011056 636.144088,77.8319072 637.8215,77.722 C641.6695,77.722 643.595667,75.1631667 643.600007,70.0455 C643.604333,64.9278333 641.686833,62.3646667 637.8475,62.356 C636.166871,62.248629 634.54172,62.9784872 633.5055,64.306 Z M399.551,66.5875 C397.817667,66.5875 396.951,67.634 396.951,69.727 C396.909114,70.5283714 397.138062,71.3205314 397.601,71.976 C398.086012,72.5404984 398.808366,72.8438872 399.551,72.795 C400.295212,72.8534978 401.021746,72.5483538 401.501,71.976 C401.958518,71.3179383 402.186919,70.5276736 402.151,69.727 C402.151,67.634 401.284333,66.5875 399.551,66.5875 Z M450.3875,68.037 C449.766536,68.8104065 449.421159,69.7687722 449.406,70.7605 L456.075,70.7605 C456.117709,69.7693329 455.788514,68.797977 455.152,68.037 C454.576418,67.4364481 453.786709,67.0932905 452.960665,67.0783549 L452.7535,67.0815 C451.86246,67.0351655 450.996476,67.38489 450.3875,68.037 Z M314.5375,68.037 C313.916536,68.8104065 313.571159,69.7687722 313.556,70.7605 L320.225,70.7605 C320.267709,69.7693329 319.938514,68.797977 319.302,68.037 C318.726418,67.4364481 317.936709,67.0932905 317.110665,67.0783549 L316.9035,67.0815 C316.01246,67.0351655 315.146476,67.38489 314.5375,68.037 Z M247.4575,68.037 C246.836536,68.8104065 246.491159,69.7687722 246.476,70.7605 L253.145,70.7605 C253.187709,69.7693329 252.858514,68.797977 252.222,68.037 C251.598453,67.3864021 250.723604,67.037885 249.8235,67.0815 C248.93246,67.0351655 248.066476,67.38489 247.4575,68.037 Z M365.2115,57.2145 C366.947,57.2145 367.8115,57.9815 367.8115,59.5285 C367.848035,60.1687307 367.61189,60.794515 367.1615,61.251 C366.622403,61.7159043 365.92172,61.949465 365.2115,61.901 C363.478167,61.901 362.6115,61.121 362.6115,59.561 L362.6115,59.5285 C362.6115,57.9815 363.476,57.2145 365.2115,57.2145 Z" id="Combined-Shape" fill="#282E4F" fill-rule="nonzero"></path>
        </g>
    </g>
</svg>