<svg xmlns="http://www.w3.org/2000/svg" width="102.82" height="64.574" viewBox="0 0 102.82 64.574">
  <g id="Group_18" data-name="Group 18" transform="translate(-152.56 -337.118)">
    <path id="Path_31" data-name="Path 31" d="M188.08,401.692q-.387,0-1.7-.044a16.029,16.029,0,0,1-2.629-.307,1.68,1.68,0,0,1-1.547-1.846v-60.18a1.678,1.678,0,0,1,1.547-1.844,20.119,20.119,0,0,1,2.977-.309c1.005-.029,1.534-.044,1.585-.044s.58.015,1.585.044a20.138,20.138,0,0,1,2.978.309,1.679,1.679,0,0,1,1.545,1.844v48.5h19.663q1.39,0,1.623,1.756a29.374,29.374,0,0,1,.27,3.383q.039,1.713.04,1.8t-.04,1.8a29.35,29.35,0,0,1-.27,3.383q-.232,1.759-1.623,1.756Z" transform="translate(11.003 0)" fill="#ECAE11"/>
    <g id="Group_11" data-name="Group 11" transform="translate(214.494 337.407)">
      <g id="Group_10" data-name="Group 10">
        <path id="Path_32" data-name="Path 32" d="M237.672,358.614l-18.448-20.786c-1.687-1.185-4.208-.126-4.168,1.748l.074,3.612c.04,1.911-2.568,2.958-4.237,1.7l-8.926-6.727c-1.654-1.245-4.238-.233-4.238,1.66v41.5c0,1.831,2.435,2.864,4.116,1.747l10.274-6.827c1.68-1.116,4.115-.084,4.115,1.747v2.132c0,1.854,2.49,2.879,4.162,1.715l17.269-19.79A2.023,2.023,0,0,0,237.672,358.614Zm-13.69,10.3a6.575,6.575,0,0,1-2.39,2.076,12.106,12.106,0,0,1-3.687,1.181,28.554,28.554,0,0,1-4.755.367,29.3,29.3,0,0,1-3.815-.224,16.715,16.715,0,0,1-3.458-.862,5.223,5.223,0,0,1-.89-.447.95.95,0,0,1-.383-.542,5.131,5.131,0,0,1-.178-1.165c-.016-.415-.025-.634-.025-.655a3.063,3.063,0,0,1,.051-.542,3,3,0,0,1,.051-.559,3.867,3.867,0,0,1,.152-.558,1.248,1.248,0,0,1,.407-.5,1.669,1.669,0,0,1,1.017-.24,2.109,2.109,0,0,1,.432.064q.28.064.535.128a16.443,16.443,0,0,0,1.857.415,21.382,21.382,0,0,0,3.534.223,9.434,9.434,0,0,0,2.519-.3q1.092-.3,1.093-.941a1.59,1.59,0,0,0-.89-1.278,16.281,16.281,0,0,0-2.238-1.166q-1.347-.59-2.925-1.277a18.211,18.211,0,0,1-2.925-1.6,8.691,8.691,0,0,1-2.238-2.156,4.913,4.913,0,0,1-.89-2.937,5.21,5.21,0,0,1,.89-3.081,6.69,6.69,0,0,1,2.493-2.075,13.122,13.122,0,0,1,3.789-1.181,28.876,28.876,0,0,1,4.781-.367,27.84,27.84,0,0,1,3.077.192,17.141,17.141,0,0,1,3.229.671,5.3,5.3,0,0,1,.89.446.969.969,0,0,1,.383.543,4.669,4.669,0,0,1,.177,1.15c.018.425.026.649.026.669a3.2,3.2,0,0,1-.051.543,3.12,3.12,0,0,1-.051.559,3.818,3.818,0,0,1-.152.558,1.817,1.817,0,0,1-.306.5q-.2.241-1.068.24h-.28a1.819,1.819,0,0,1-.432-.064,19.616,19.616,0,0,0-1.958-.351,27.16,27.16,0,0,0-3.636-.192,5.772,5.772,0,0,0-2.01.367,1.317,1.317,0,0,0-.991,1.293q0,.543.89,1.07a19.417,19.417,0,0,0,2.238,1.1q1.347.576,2.925,1.277a19.307,19.307,0,0,1,2.925,1.613,8.982,8.982,0,0,1,2.238,2.124,4.631,4.631,0,0,1,.89,2.81A5.31,5.31,0,0,1,223.982,368.919Z" transform="translate(-197.728 -337.329)" fill="#1B4184"/>
      </g>
    </g>
    <path id="Path_33" data-name="Path 33" d="M153.025,338.085a1.745,1.745,0,0,1,1.082-.614,20.119,20.119,0,0,1,2.977-.309c1.006-.029,1.534-.044,1.586-.044h15.758a10.9,10.9,0,0,1,4.794,1.011,11.319,11.319,0,0,1,3.6,2.723,17.551,17.551,0,0,1,2.552,3.822,28.717,28.717,0,0,1,1.74,4.393,46.4,46.4,0,0,1,1.7,11.949v.614a25.1,25.1,0,0,1-.62,4.813,41.361,41.361,0,0,1-1.662,6.545,18.519,18.519,0,0,1-3.21,5.843l4.8,20.665a1.8,1.8,0,0,1-.464,1.23,1.741,1.741,0,0,1-1.083.616,20.133,20.133,0,0,1-2.977.307c-1.005.03-1.534.044-1.585.044s-.58-.014-1.586-.044a20.114,20.114,0,0,1-2.977-.307,1.844,1.844,0,0,1-1.082-.7,2.389,2.389,0,0,1-.465-1.142l-3.712-16.36h-7.406v16.36a1.8,1.8,0,0,1-.463,1.23,1.741,1.741,0,0,1-1.083.616,20.132,20.132,0,0,1-2.978.307c-1,.03-1.533.044-1.584.044s-.58-.014-1.586-.044a20.113,20.113,0,0,1-2.977-.307,1.734,1.734,0,0,1-1.082-.616c-.31-.351-.465-.76-.465-3.709C152.56,397.016,152.715,338.436,153.025,338.085Zm23.568,21.7a25.3,25.3,0,0,0-.388-5.1,5.116,5.116,0,0,0-1.237-2.593,3.534,3.534,0,0,0-2.2-.965q-1.353-.132-3.287-.132h-4.7v18.253h4.7q1.931,0,3.287-.132a3.52,3.52,0,0,0,2.2-.967,5.139,5.139,0,0,0,1.237-2.635,5.615,5.615,0,0,0,.388-2.66Z" transform="translate(0 0)" fill="#ECAE11"/>
  </g>
</svg>
